<?xml version="1.0" encoding="utf-8"?>
<!-- Generator: Adobe Illustrator 16.0.0, SVG Export Plug-In . SVG Version: 6.00 Build 0)  -->
<!DOCTYPE svg PUBLIC "-//W3C//DTD SVG 1.1//EN" "http://www.w3.org/Graphics/SVG/1.1/DTD/svg11.dtd">
<svg version="1.1" xmlns="http://www.w3.org/2000/svg" xmlns:xlink="http://www.w3.org/1999/xlink" x="0px" y="0px"
	 width="784.078px" height="458.627px" viewBox="0 0 784.078 458.627" enable-background="new 0 0 784.078 458.627"
	 xml:space="preserve">
<g id="Layer_2">
</g>
<g id="world-map">
	<g>
		<polygon fill="#0080FF" points="240.978,67.089 238.933,66.84 238.17,65.632 238.169,65.633 238.929,66.843 		"/>
		<path fill="#0080FF" d="M0,0v458.627h784.078V0H0z M753.335,334.219l1.521,3.659l-0.947,1.221l1.3-0.189l1.453,2.277l-1.741,0.971
			l-1.892-0.595l-0.133-1.816l-0.984-0.662l-0.599-2.154L753.335,334.219z M735.613,311.609l-0.133,0.082l3.225,0.729l1.129,1.927
			l3.937,3.229l-1.508,3.117l1.237,0.226l0.975,3.816l-2.33-0.145l-1.887-2.484l0.934-1.608l0.34,0.063l-1.499-2.056l-0.424-2.257
			l-0.991,1.599l-2.397-2.917l-1.203-2.951l-1.035,0.64l1.696,2.829l0.115,2.506l-2.506-0.752l-1.422-2.616l1.579-1.683l-1.741-1.65
			l-0.21-3.152l2.709,0.58L735.613,311.609z M748.096,360.059l-0.477,3.406l-3.127-1.354l-4.083-5.699l0.612-3.132L748.096,360.059z
			 M740.405,327.045l-2.279,1.28l-2.174-3.026l2.923-1.352L740.405,327.045z M733.876,102.797v2.87l-1.923,2.155l-2.391-4.408
			L733.876,102.797z M728.778,303.753l2.468,2.996l0.239,2.475l-1.345,1.204l-2.418-2.355l-1.364-3.792L728.778,303.753z
			 M723.477,305.184l-3.532,2.207l-5.621,0.279l-0.331-3.088l5.021-0.881l1.107-0.718l0.51-2.267l1.186-0.278l-3.477-3.079
			l1.588-2.249l5.857,5.13l-0.181,3.092l-2.216,0.255L723.477,305.184z M694.618,316.51l-3.458-3.748l-0.226-5.676l-8.819-7.297
			l-0.695-3.476h-0.618l-0.991,3.939l-2.29-0.149l-1.421-4.955l2.165-1.76l-3.183-0.589l-1.355-2.737l2.863-2.095l3.713-0.416
			l2.323,0.347l0.077,6.039l2.146,1.366l1.348-0.827l5.256-3.556l5.618,3.911l1.938,0.322l8.42,5.684l0.701,3.232l2.908,0.071
			l2.023,4.376l-2.065,1.001l2.224,5.142l5.367,4.468v2.939l-2.475,0.91l-7.166-3.779l-0.694-5.763l-1.64-1.47l-2.552-0.125
			l-3.763,4.396l-4.009,0.216l0.001-0.031L694.618,316.51z M629.178,295.397l-4.587-0.516l-3.101-11.96l1.746-0.481l-0.217-0.25
			l0.922,0.056l0.212-0.059l0.063,0.075l2.878,0.173l-0.152-2.486l7.499-5.503l2.856-3.463l3.209-5.913l1.734,3.039l5.717,4.164
			l-4.825,3.498l0.396,3.507l3.374,7.078l-3.223-0.645l-1.754,3.529v4.27l-4.029,5.578l-3.729,0.685v-2.488L629.178,295.397z
			 M621.002,237.14l-2.451-0.219l-1.584-3.088l1.865-2.3l2.418-0.681l2.786,1.007l-0.646,3.166L621.002,237.14z M651.271,244.198
			l2.7,0.297l1.61,1.537l1.423,1.942l-1.435,1.963l-2.773-0.238l-0.476-2.172l-1.629-0.264l-0.701,0.473l1.617,2.24l-1.551,2.015
			l-1.915-1.244l-1.007-3.584l0.521,0.07l-0.234-0.186l-3.464-6.715l0.266-5.3l2.688-1.905l3.677,0.881l1.378,3.437l-0.179,2.651
			l-1.569,2.374L651.271,244.198z M669.928,139.127l-0.835,2.439l-1.826,1.511l-2.241-0.789l-4.196-7.993l-2.24-8.404l-6.398-9.882
			l0.098-6.959l2.203,2.052l11.376,16.111l-0.43,2.599l-1.2,0.523l-0.118,2.46L669.928,139.127z M660.43,179.211l0.987-0.274
			l1.188-0.684h1.725l0.866,0.721l-0.421-0.655l0.328-2.776l1.448-3.23l1.573,0.972l1.829-2.26l-0.279-4.669l-0.959-1.125
			l0.013-2.388l0.445-2.39l-0.767,0.258l-3.791-5.213l1.401-3.126l1.229-0.478l0.063-2.811l-1.013-1.021l-0.802-3.009l2.206-1.95
			l2.066,2.742l2.046,1.351l1.604,0.347l0.891-1.053l1.866-1.253l0.411,0.784l-0.145-1.392l2.741-3.846l1.726,0.915l-0.141-2.424
			l0.955-2.584l3.225-1.344v2.243l-1.423,2.864l-2.229,1.451l0.905,0.479l-3.261,4.089l-1.726,0.748l0.124,0.237l3.084,1.404
			l-2.842,2.881l-1.43,2.612l-0.501,3.497l-4.104-2.759l-0.889-0.141l-0.711,0.917l2.127,1.917l-0.449,1.265l0.2-0.08l1.396,1.147
			l4.29,6.478l-1.885,1.554l0.685,3.022l1.81,6.903l-3.758,4.506l-3.143,0.076l-0.602,2.3l-2.001,2.447h-1.987l-0.849-1.541
			l-0.18,1.483l-3.103,3.25l-1.064-0.735l-0.159,5.031l-2.434,2.216l-1.589-1.729l-0.719-3.749l-1.118-0.078l-0.818-2.819
			l1.503-1.51v-3.053L660.43,179.211z M687.688,122.434v3.675l-1.217,1.958l-2.166-0.775v-4.723L687.688,122.434z M685.155,119.485
			l1.493-1.856l2.995,0.75l-2.246,3.962l-2.112,0.182L685.155,119.485z M651.428,289.63h0.35l4.028-2.616l1.745,2.401l-3.854,2.81
			l0.948,1.765l1.526,5.29l-1.817,4.168l-2.6-0.697l-1.339-6.488l-0.81,7.125h-4.155l0.043-1.649l1.064-3.01l-1.84-2.254
			l0.934-3.069l1.611-6.908l2.627-4.232l2.755-0.104l3.068,1.465h1.589l3.461-2.682l2.379,2.394l-4.143,3.875l-1.774,0.108
			l-4.353-1.33l-2.484,1.217l-0.258,0.518L651.428,289.63z M663.121,268.539l-1.433,1.708l-1.502,0.51l-2.846-2.005l-1.08-2.744
			l-0.979,0.607l-3.176,0.997l-0.175-2.46l2.841-3.05l2.331-0.242l2.243-1.809l-0.354-2.694l-2.318,2.707l-0.183-0.301l-0.814,2.105
			l-2.604-0.56l-0.598-3.178l-1.552-1.563l0.11-5.492l4.114,1.582l0.091,1.499l0.028-1.228l2.571,0.213l-0.083-0.224l-2.131-2.823
			l3.269-0.708l2.052,1.41l0.322,4.399h-2.478l0.158,1.268l4.215,2.955l0.164,4.078l0.971,1.964l-1.521,2.505l-1.148-0.938
			L663.121,268.539z M643.237,224.186l-3.194-3.716l0.179-4.907l4.373-3.336l0.091,10.68L643.237,224.186z M643.633,256.72
			l0.42-1.669l1.306-2.49l2.961,4.642l-5.65,6.314l-2.598,0.373l-0.474-2.045L643.633,256.72z M639.217,310.04l2.567,1.58
			l-0.447-2.15l3.396-0.148l1.339,2.033l-1.37,1.697l-2.479-0.646l-3.955,1.498l-2.036-2.215L639.217,310.04z M647.041,313.423
			l2.418,3.596h-3.287l-3.496-2.956L647.041,313.423z M645.712,313.114l1.013-2.041l1.42-1.135l1.133,0.952l2.4-0.682l3.484,1.048
			l-4.557,2.618L645.712,313.114z M658.905,311.366l4.073,0.197l1.572,2.695l-4.978,0.688l-2.077,1.938l-2.565,0.473l-0.87-1.951
			L658.905,311.366z M663.365,284.906l2.49-6.065l1.229,4l1.354,0.497l1.598,1.74l-0.907,1.171l-1.219,2.457h-1.643L663.365,284.906
			z M666.813,293.362l3.74-0.83l1.77,0.63l2.213,2.688l-1.938,1.598l-2.085-1.682l-1.039,0.603l-2.765,1.033l-1.396-2.4
			L666.813,293.362z M699.276,94.816l4.759,1.812l-0.588,2.354l-3.622-1.064L699.77,97.6l-1.109,1.277l-2.702-1.912l-1.672-2.395
			l3.227-0.32l2.101,2.467L699.276,94.816z M712.156,100.172l5.417,0.809l-0.704,2.591l-2.714,0.183L712.156,100.172z
			 M718.147,42.547l2.396-1.565l4.549,0.572l0.165,5.468l-2.137-0.645l-1.831-0.615l-2.28,0.767l-1.511-1.713L718.147,42.547z
			 M678.549,13.049l3.218-1.188l2.948,0.911l1.095,2.331l-1.36,1.505l-5.287,2.344l-2.425-3.222L678.549,13.049z M611.587,17.571
			l4.086-0.896l1.68-1.275l2.328,0.965l0.519,2.484l-1.967,2.564l-6.527,0.743l-2.152-4.077L611.587,17.571z M613.114,31.193
			l-3.987,2.009l-5.114,0.488l1.115-3.645l2.067-2.212l3.485,0.9L613.114,31.193z M592.361,20.714l5.425-0.091v-2.265l5.64-0.512
			l2.378-1.567l4.024,2.782l-0.614,3.476l-2.363,0.979l-2.263-1.899l-0.63,0.153l0.664,0.716l1.271,2.418l-4.338,1.087l0.346,3.117
			l-2.453,1.786l-7.086-5.273V20.714z M533.013,26.72l2.597,1.924v3.111l-3.508,0.771l-2.284,4.016l-2.175-5.209l-1.235-4.965
			L533.013,26.72z M522.872,24.714l2.457,0.675l1.216,2.136l0.841,2.884l-2.384,1.993l-2.942,1.319l-2.373-1.763l-0.922,1.508
			h-3.399l1.2-4.048l3.531-2.588l1.733,0.122L522.872,24.714z M509.926,26.595l2.058-0.684l1.938-1.101l0.503-1.519h2.869
			l2.891,1.794l-5.669,4.841l-5.072-0.369L509.926,26.595z M467.174,36.73l2.39,0.444l0.628,2.069l-0.549,2.015l-2.979,2.298
			l-0.651-3.046l-0.923-1.673L467.174,36.73z M462.722,39.173l2.46,0.574l1.079,3.057l-2.235,0.896l-2.589-0.184l-1.513-3.256
			L462.722,39.173z M460.707,68.285l5.812-9.654l7.038-1.592l2.915-2.554l0.557-2.594l4.395,1.628v5.107h-2.006l-2.448,1.04
			l-3.705,2.856l-4.102,2.136l-1.603,4.967l-1.008,4.091l-7.184-1.815L460.707,68.285z M458.601,72.803l5.175,0.579l1.359,4.711
			l3.48,3.656l-1.572,3.164h-2.783l-1.846-2.142l-4.121-0.14l-2.059-2.766v-2.383l2.521-0.706L458.601,72.803z M452.146,40.084
			l2.179-1.227l1.064,1.222l1.034-0.306h2.297v2.217l-2.127,1.967l-2.533,0.177l-1.914-1.55V40.084z M441.729,44.503l1.352-1.746
			h2.114l2.254-1.514l2.584,1.04l-1.327,2.278v2.637l-2.655,1.607h-2.818l-1.686-2.076L441.729,44.503z M388.316,53.864h5.907
			l3.325-1.617l1.123,1.129l-1.679-2.588l3.075-2.843l2.301-0.162l0.263,1.703l0.901,0.91l0.979-2.133l1.801-0.184l1.011,1.258
			l1.654-1.489l3.184,1.847l1.226,2.48l-3.067,2.594l-4.026,2.346l-3.711-1.926l-0.944-1.293h-2.432l2.146,0.932l2.001,1.74
			l-4.199,5.099l-3.494,5.867l-2.161-3.414l0.698-3.902l0.88-1.762l-0.449-0.321l-1.701,2.911l-2.052,0.299l-3.699-3.266
			L388.316,53.864z M409.229,60.992l-1.604,2.005l-2.937,1.368l-2.109-0.659l-1.239-2.184l2.156-1.659l2.218-2.016l2.036,0.713
			L409.229,60.992z M363.229,130.4l1.958,1.938l-1.566,2.372l0.104,0.159h3.804v2.515l-0.854,1.146l0.517,2.749l1.901,3.687
			l1.395,3.236l2.354,0.892l1.299,2.256l-0.201,2.277l-1.45,0.879l1.239,0.719l-1.523,2.046l-2.471,1.067l-4.048-0.451l-6.454,2.94
			l-3.667-1.842l5.754-3.332l-3.402-0.327l2.56-3.771l0.352-2.831l2.411-0.286l-0.318-3.317l-2.645-0.129l-0.612,1.104l-0.928,6.124
			l-7.152,2.625h-2.479l-2.012-1.417v-1.709l3.09-1.98l-0.692-1.395l0.203-3.514l3.082,0.158l2.823-6.628l-0.239,3.764l2.89-0.325
			l0.72,0.926l0.091-2.188l-2.048,0.168l2.186-7.348L363.229,130.4z M240.104,23.671l2.739,2.474l0.44-2.791l3.654,0.241
			l4.827,3.995l4.386-3.184l23.288,8.217l-2.503,2.529h-8.652l-0.23,0.31l5.227,1.599l-13.47,5.25l-7.099-1.19l-0.143,0.804
			l2.653,1.777v2.146l-5.283,0.785l-2.042,2.242h-1.801l1.971,1.989l-4.906,2.726l-3.857-2.723l-5.093-0.579l-4.774-1.921
			l-1.747-2.929l4.42-1.014v-1.679l3.185-0.561l3.367,3.587l1.591,0.23l0.377-1.702h-2.608l-2.348-4.486l3.052-1.95l2.771,2.413
			l0.592-0.298l-3.87-5.466l5.208-0.529l3.87,3.014l5.66-2.696l-0.088-1.338l-7.432,1.872l-3.948-2.433l0.335-2.721l-5.733-1.224
			l-1.136-3.139L240.104,23.671z M219.834,54.915l-0.449-2.999l-1.488,2.248l-5.341-1.96l1.588-3.193l5.107,2.014l-0.09-0.603
			l1.105-1.116l-0.11-1.118l-3.621-2.37l-0.477-3.877l3.178-1.063l2.436,2.228l3.908,1.968l0.563,6.183l1.797,1.811l5.405,0.511
			l4.416-1.16l5.534,4.464l-4.821,4.159l-4.222-1.413L219.834,54.915z M224.559,58.465l-5.555,4.668l-2.224,0.244l-1.182-1.187
			l-0.822,1.521h-3.4l-1.153-4.876l4.501-3.673L224.559,58.465z M224.425,26.354l2.322,0.876l-0.12-1.459l3.54-2.294l9.256,13.994
			l-6.829,3.013l-4.7-0.82l-4.022-5.482l5.055-0.637l0.043-0.305l-0.75-0.648h-5.333l-0.24-3.908L224.425,26.354z M221.177,31.958
			l2.807,3.265v2.367l-5.141,2.824l-1.344-3.514l1.179-2.038l-2.02-2.293L221.177,31.958z M206.861,31.781l0.973-1.368l0.47-1.667
			l4.344-0.245l4.063,4.512v4.15h-2.297l-3.577-3.068l-3.975,0.633V31.781z M207.815,42.844l4.66-0.64l2.587,3.318l-3.552,5.68
			l-2.1,0.298l-1.364-2.2l1.029-2.666l-5.111-0.212L207.815,42.844z M204.02,53.792h4.019l2.899,2.126l-2.395,2.414v4.873
			l-6.888,4.165l-0.23-4.903l-2.714-4.308l1.956-2.536l2.189,1.019L204.02,53.792z M193.341,26.77l3.3-1.192l3.822,0.679
			l0.369,2.617l-4.244,0.278l3.313,0.573l0.35,2.136l-3.331,1.922l-4.385-2.094l0.926-3.078l0.144,0.025L193.341,26.77z
			 M191.921,41.007l1.311,0.108l0.841-0.636l-0.546-2.55l1.271-1.019l2.249-1.443h2.79l-1.8,3.112l0.242,2.462l2.415-0.872
			l1.033,4.149l-4.055,4.087l-2.098-3.377h-3.242l-5.071,2.251l-1.604-3.495l1.236-1.379l-6.727-2.541v-2.842l6.492-2.743L191.42,38
			L191.921,41.007z M168.49,64.298l2.139-4.048l5.222,3.267l0.939-2.098l-6.933-2.095l-0.443-4.728l4.42-3.849l7.448-1.973
			l7.314,6.317l2.7-3.636l3.437,2.726l-0.18,11.473l2.944,1.85l-0.531,5.398l-2.418-1.687l-0.438,2.922l-4.174,1.399l-4.336-4.878
			L184.82,72.1l-6.899,0.399l-5.964-1.66l0.189-4.022L168.49,64.298z M173.744,29.274l6.66-0.176l2.435-2.454l2.042,1.591
			l5.218,1.371l-4.493,5.006h-2.648l-0.738-1.737l-2.096,3.171l-8.476-3.066L173.744,29.274z M164.861,39.032l5.24-0.476l2.4,2.485
			l0.774,1.717l0.953,0.319l2.408-1.819l5.875,6.416l-7.078,0.463l-6.569,2.442l-2.75,4.063l-5.693,1.542l-1.974-6.608l6.616-6.854
			L164.861,39.032z M60.82,56.667v2.841l-2.961,0.667l-4.493-8.404L60.82,56.667z M15.255,107.116l-2.487-2.504l1.408-2.59
			l3.862,1.595L15.255,107.116z M18.875,108.28l-0.494-3.755l0.703-1.886l4.413,0.989L18.875,108.28z M41.812,103.293l-3.326,0.768
			l0.026-0.457l-3.032,1.379l-2.166,1.75l-1.032-3.602l4.638-2.34l1.636,2.054l0.197-3.477l3.059,1.802V103.293z M159.853,291.669
			l-2.518,0.989l-1.241-2.227l1.188-1.196L158,286.05l2.253,1.718l0.695,1.991L159.853,291.669z M211.766,400.997l1.706-2.58
			l2.012,1.813l-0.699,4.626l-2.324-0.232L211.766,400.997z M254.479,429.528l-4.48,1.717l-0.388-1.889l2.2-1.95l0.239-0.768
			l-3.771,3.976l-2.693-2.92l3.1-2.083l3.563,0.393l0.514-1.652l3.781,2.584L254.479,429.528z M290.499,312.214l-9.95,9.08
			l1.57,3.319l-0.79,14.04l-4.51,7.641h-5.56l-9.03,5.829l-0.18,8.051l-5.18,9.97l0.17,0.1l-0.47,0.471l-0.08,0.149l-0.04-0.03
			l-7.13,7.141l-4.64-1.34l4.05,4.92l-4.29,7.5l-3.34,1.439h-2.65l0.9,5.08l-5.23,1.8l1.13,4.011l-3.09,9.87l3.96,3.239l-2.39,5.86
			l-3.38,5.31l1.79,3.7l0.89-0.13l-0.62,0.68l0.1,0.23l-0.33,0.05l3.48,4.22v0.131l1.79,1.35l6.8,1.39l-4.74,3.13l-4.57,0.41
			l-0.01-0.26l-7.28-0.77l0.95-2.07l-6.08-3.45l-5.5-7.93l-1.88-3.271l2.37-3.06l-0.17-2.88l-2.27-0.971l-2.4-1.77l0.62-2.95
			l2.56-0.729l0.49-10.74l-4.09-2.32l-2.72-61.6l-14.6-9.41l-14.05-25.62l-0.13-3.07l2.93-2.949l0.01,0.1l0.11-0.13l-2.37-2.271
			l1.02-1.529l0.29-3.761l4.46-2.76l3.78-9.28l-0.71-7.42l-0.75-1.199l-1.81-0.94l-1.94,0.98l-0.47,3.289l-3.23-0.64l-4-1.03
			l-0.03,0.091l-0.22-0.16l-0.51-0.13l0.06-0.19l-2.52-1.77l-4.2-3.841v-2.899l-1.32-3.01l-0.76-0.41v0.069l-5.1-2.54l-0.08,0.091
			l-0.56-0.41l-0.04-0.021l0.01-0.01l-5.54-4.05l0.06-0.061l-4.98-4.08l-3.78,2.2l-9.92-4.56l-8.89-10.45v-7.53l-10.68-20.9
			l0.82-4.76l-0.55-1.26l-0.88-0.08l-0.51,4.67l2.44,8.02l2.17,14.35l-6.12-5.88v-4.9l-3.46-2.66l-0.27-3.28l1.73-0.97l-4.06-12.8
			l0.14-0.01l-0.6-5.24l-3.26-1.64l-2.74-20.13l10.06-22.55l0.95-4.01h1.33l-2.36-2.52l-0.56-3.18l-2.86-3.32l2.71-1.06l3.77,4.02
			l2.28,1.42l-0.08-0.33l-5.38-5l0.02-4.6l0.78-3.56l-0.33-1.67l-2.06-2.08l-0.5-4l0.19-0.13l-0.39-15.75h-0.15l-0.21,6.52h-2.72
			l-1.25-4.8l0.85-1.06l-0.34-3.49l-5.31-5.16l-5.71-1.28l-1.31-5.29l-7.27,3.19l-5.99-0.78l3.15-5.29l-5.46,3.62l-7.56,9.26
			l-8.31,2.31l-20.63,6l0.31-4.68l8.96-2.14l13.12-6.02l3.02-3.57l-0.14-0.28l-2.53,2.36l-4.39-2.94l-2.34-11.59l6.56-10.88
			l10.71-3.35l-0.12-0.51l-7.51-2.05l-1.63-8.91l7.93-1.87l6.75,5.47l1.42-3.74l-5.33-3.19l1.14-8.76l26.13-5.06l22.91,17.92
			l0.09-0.16l0.31,0.48l0.13,0.1l-0.03,0.05l1.99,3.08l0.71,2.85l3.21,0.81l2.94-3.16l2.83,1.42l6.61,0.59l5.63-2.38l0.86,7.11h1.45
			v-2.92l3.98,0.27l7.27,8.58l5.24,3.22l-2.54,4.04l0.45,0.44l9.51,1.92l0.21,4.09l1.06,0.18l0.59-5.89l4.9-1.29l3.04,4.59
			l5.85,2.74l2.53,0.52l1.59-1.94l0.21-4.05l4.79-2.95l1.65,4.49l-3.3,5.84l0.09,0.61l0.87-1.32l3.44-3.09l0.18-3.77l-2.08-3.36
			l0.76-3.31l5.62-2.84l2.91,2.14l0.37,13.16l2.68-2.38l3.15,1.9l-2.72,4.68l2.16,0.48l5.36-8.29l-5.52-0.26l-0.8-10.45l2.83-3.88
			l5.09-1.97l5.44,0.5l-4.94,7.3l-0.27,3.2h1.6l0.51-4.44l6.84-4.67l0.8,3.8l2.01-2.04l2.64,0.24l5.44,5.74l-8.42-1.02l-1.59-2.53
			l1.02,4.83l6.76-0.9l3.13,6.83l3.24-2.23l7.01,7.47l-3.2,5.3l2.9,7.96l4.67-1.45l1.78,3.85l-8,7l-3.75-6.29l-1.68,1.92l4.7,7.66
			l-6.37,8.08l-8.95-5.81l-3.07-7.89l-3.26,1.56l-3.8-0.22l-1.18-3.79l2.9-3.88l1.9,1.68l2.48,0.46l3.57-1.63l3.44-5.72l0.88-4.61
			l-3.41,0.16l-5.41-6.2l-7.17-3.53l-2.3-0.11l5.12,5.39l-1.99,9.15l-5.13,2.82l-4.4-2.11l-6.7,1.42l0.68,2.22l-2.39,3.84
			l-6.46,1.48l-6.94,5.39l-6.18,8.25l-0.58,1.87l3.94,1.52l1.69,4.27l5.71,5.75l9.82,4.3l-2.16,10.01l-0.17,2.18l1.5,1l2.7-3.56
			l0.44-8.68l5.35-0.21l2.17-4.2l0.42-7.19l6.89-13.48l9,3.18l4.65,6.45l-1.78,5.75l2.35,1.33l8.55-5.76l2.39,15.56l7.38,8.87
			l0.25,5.39l-8.54,2.15l-4.03,4.27l-8.51-1.93l-3.74-0.19l-4.17,3.25l0.89-0.22l5.79-1.11l1.56,1.9l-1.5,4.78l0.16,3.4l0.2-0.06
			l-0.19,0.19v0.07l1.86,1.25l1.85-0.47l1.29-1.94h3.28l-3.44,6.42l-5.16,0.2l-2.25,3.31h-3.8l-1.14-3.41l2.18-2.2l-2.69,0.9
			l-8.19,4.72l1.51,5.17l-9.37,1.54l-8.35,9.01l0.86,6.25l-6.79,1.98l-8.08,6.96l-1.71,5.15l1.15,4.63l1.38,2.56l-3.52,5.45h-4.03
			l-1.66-5.73l1.25-2.95l-0.38-4.7l-1.65-1.83l-9.15-0.19l-0.21,3.13l-5.92-0.54l-5.31-2.48l-8.27,6.01l-3.16,5.92l-0.02-0.01
			l-1.77,9.42l2.29,7.33l5.01,2.05l4.06-0.71l1.83-5.34l8.78-2.04l2.78,2.521l-4.12,7.27h0.04l-2.78,5.18l0.95,1.431l7.94-0.301
			l2.96,3.521l0.01,0.01v0.01l0.95,1.12l-0.93-0.21l0.05,3.49l-2.16,6.18l1.04,2.03l0.9,1.2l1,0.29l2.44,0.979l2.33-1.18l2.5-1.71
			l2.62,1.42l3.03,1.25l11.26-9.29l3.29,0.34l-3.43,4.761l0.41,2.43l1.39,0.439l0.51-3.279l3.55-3.67l3.19,3.75l6.07,1.649l5.74-1.2
			l3.94,4.851l2.65,1.67l0.12-0.18l6.59,5.97l0.13-0.141l1.81,1.66l2.3-1.43l3.59,0.11l-0.15,0.46l5.29,3.3l2.5,0.82l0.64,7.43
			l-1.74,3.649l6.92,0.69l16.72,5.24l14.2,6.95L290.499,312.214z M110.229,124.804l-1.68,1.83l-1.79-1.8l-0.37-3.7l0.95-0.27
			l-0.51-0.32l-0.63-2.46l1.81-3.47l1.84,0.55l1.52,2.57l-1.75,2.33l-0.52,1.81L110.229,124.804z M259.161,157.29l3.768-0.472
			l1.06,5.32l-1.975,3.405l-11.492-4.253l-1.209-2.737l9.723-9.311l2.063,3.51l-3.154,3.178L259.161,157.29z M225.804,101.642
			l-3.533,2.917l-2.862-2.646h-3.184l-4.041,2.328l0.284-6.41l4.135-5.199L225.804,101.642z M232.032,256.011l-2.014,1.127
			l0.437,0.267l-0.681,1.799l1.796,0.285l0.245,1.813l-0.563,1.635l-1.199,1.938l-2.647-2.437V260.3l1.351-0.209l0.722-0.668h-1.879
			l-0.893-1.439l1.778-1.779l0.171,0.104l-0.81-1.484l1.513-1.095l-1.081-1.166l0.853-1.809l-1.091-2.213l1.972-1.823l1.947,3.397
			l-1.712,0.502l2.341,2.355l-2.021,1.076L232.032,256.011z M224.195,245.18l-1.046-2.631l2.375-0.98l1.365,1.387l0.354-0.754
			l2.359,3.366l-2.2,1.913l-1.623-2.168l0.793-1.686L224.195,245.18z M221.572,240.03l-0.129,3.204l-4.06-0.597l-1.618-1.891
			l2.775-1.738L221.572,240.03z M203.567,242.071l-0.586,0.884l-2.02-0.144l-0.623-3.28l3.527-0.293l-0.082-0.758l-2.206-0.908
			l2.399-2.446l2.584,0.27l0.018-0.168l0.666,0.239l0.652,0.068l-0.016,0.161l2.491,0.896l4.754,3.109l-0.515,2.705l-2.958-0.631
			l-2.347,0.623l-1.513,1.754l-0.991-1.903l-0.175-0.01l-0.789,0.063l0.011-0.105L203.567,242.071z M197.015,238.399l-3.927-0.984
			l-0.25-2.166l0.644-0.888l-3.16-2.854l-4.481-1.091l-0.15-0.411l-1.462,0.851l-5.304-0.1v-2.312l6.143-2.137l4.047,0.436
			l10.748,6.308l2.937,1.483l-2.376,2.32L197.015,238.399z M197.256,240.424l-1.867,2.159H193.1l-2.213-1.275v-1.813l3.756-0.948
			L197.256,240.424z M199.359,220.352l1.187,2.392l1.083,0.821l0.182,2.834l0.367,0.02l1.123,2.286l-1.928,2.115l-1.739-2.514
			l-0.335-2.046l2.51,0.139l-3.942-1.672l-0.665-3.461l0.952-0.403l-1.482-0.373l-0.245-1.647l-2.034-0.718l2.036-2.057l2.169,0.782
			l1.729,1.05l-0.97,2.452L199.359,220.352z M195.537,221.962l1.426,2.327l-0.699,1.028l1.244-0.694l1.067,2.962l-1.573,2.114
			l-2.417-3.445l0.169-0.095l-1.585-1.595l0.135-3.292L195.537,221.962z M276.362,88.719l0.649-2.292l2.918-1.29l1.873,2.818
			l-0.913,3.33h-2.245L276.362,88.719z M293.375,127.322l-3.847,0.295l-1.922-2.753l-0.178-2.853l-1.56,0.428l-1.587,0.314
			l-4.175-4.672l-2.137-6.638l1.115-2.901l-1.53-4.813l0.945-6.372l6.75-9l-2.399-0.482l-4.034-4.033l5.825-0.263l-0.132-1.741
			l-1.661-0.995l-5.159,0.864l3.379-7.029l-3.401-9.137l-4.998-5.411l-4.229,0.398l-3.989,1.247l-3.49-4.555l0.865-1.944
			l-2.065-2.064l1.787-2.853l4.063,1.943l3.358-1.593l-0.136-0.547l-5.293,0.638l-3.317-3.599l2.494-4.038l3.06,2.039l4.877-0.941
			v-0.939l-0.258-3.601l3.802-1.626l4.543,0.596l0.19-2.306l4.598-2.301l7.98,1.209l1.754,3.718h3.582l0.709-3.76l5.68,1.62
			l3.041,3.443l2.95-2.108l-3.832-1.339l1.333-3.331l5.641-1.187l-0.265,2.434l4.369,1.458l-0.187-2.468l6.603-1.017l14.667,2.747
			l4.381,5.842l-14.179,0.477l-1.196,1.91l6.801-0.757l2.445,2.072l1.841-3.271l4.992,1.25l-1.798,3.975l2.635-2.635l10.887-0.948
			l3.438,3.73l-9.897,8.646l-4.157,1.872l-0.922,2.77l3.114,0.192l1.593,5.316l-7.296,9.868l3.646,2.052l-3.258,3.576l-6.833-3.642
			l-3.32,1.92l1.432,3.75l3.149,1.049l4.215,3.723l-0.817,4.607l-6.258,2.548l-5.011,5.009h-6.489l-2.506-1.157l-5.99,7.494
			l-10.031,4.008l-6.461,7.967L293.375,127.322z M339.921,81.075l-0.344,4.844l-5.157-2.583l-1.457-1.816l2.208-1.844
			L339.921,81.075z M319.983,194.608l-3.621,2.288l-1.433-1.448l0.883-2.241L319.983,194.608z M305.498,191.538l-3.81-2.145
			l2.226-2.245l2.029,1.255L305.498,191.538z M311.017,194.538l-1.614-2.047l0.982-2.652l-0.751,0.191l-2.206-1.764l2.659-1.777
			l3.088,2.643l-1.976,0.501l2.056,3.113L311.017,194.538z M316.433,247.357l1.872,2.339L315.712,251l-2.346-1.881L316.433,247.357z
			 M317.735,256.276l-2.282-3.053l2.669-1.596l1.98,3.408L317.735,256.276z M319.454,253.336l-1.338-2.47l1.992-1.768l2.704,2.733
			L319.454,253.336z M326.614,112.246l0.995-1.007l0.063-0.731l-2.314-0.291l-0.101-1.938l2.226-2.042l2.544-1.608l2.157,1.222
			l1.035,1.617l-1.016,0.687l0.025,0.801l0.827-0.891l2.511-2.089l2.158-0.206l1.272,1.394l0.505,0.065l0.948-1.176l1.18-0.852
			l4.136,3.501l-0.062,3.337l-3.316,4.382l-4.298,2.139l-2.682-0.113l-2.103-1.191l-3.958-0.694v-2.711l-2.193-0.142
			L326.614,112.246z M341.066,216.249l-2.404,4.687l-2.075-2.099L341.066,216.249z M335.665,205.806l-2.733,1.376l-1.629-2.068
			l1.818-2.309L335.665,205.806z M329.826,216.124l2.549,0.865l-0.518,1.174l2.944-0.748l0.856,3.458h-2.696l-1.378-2.088
			l-0.835,1.896l-2.933-2.533L329.826,216.124z M385.629,288.622l-1.845-0.729l-0.192-1.815l1.836-0.929l1.604,1.302
			L385.629,288.622z M386.216,285.527l-0.944-2.598l2.842-0.476l0.972,1.85l-1.328,1.443L386.216,285.527z M487.303,326.778
			l-1.665-0.511l-1.002,2.098l1.53,1.661l-7.618,13.178l0.784,3.959l-3.787,2.792l-3.834,0.445l-3.173-3.628l-0.41-6.968
			l3.249-3.772L471,327.989l2.641-3.103l5.147-0.369l2.79-4.926l1.853-4.409l2.046-0.52l1.095,3.3l1.572,6.7L487.303,326.778z
			 M477.541,315.623l-0.977,3.458h-2.053l-1.113-2.479l-1.597-0.25l-0.788-2.624l4.723-0.222l-0.998,2.613L477.541,315.623z
			 M490.779,305.076l1.102-2.232l3.39,1.82l-2.109,2.384L490.779,305.076z M488.436,255.21l3.186-0.354l2.433-0.714l2.279,2.191
			l-1.935,0.664l-2.823,1.709L488.436,255.21z M495.679,342.737l-2.136-0.439l0.22-2.94l2.86-0.188l2.11,2.132L495.679,342.737z
			 M498.413,299.853l-1.741-2.726l2.874-1.926l1.894,4.651H498.413z M501.842,300.188l-0.205,3.957l-2.521-0.471l-1.235-1.875
			l1.636-1.851L501.842,300.188z M499.388,341.986l-0.474-3.39l1.892-2.479l2.971,2.293L499.388,341.986z M535.6,271.918l3.568,1.44
			l-0.444,3.392l-0.675-0.247l2.883,2.269l-1.482,2.975l-2.11-1.05l0.206-4.378l-1.502-0.55L535.6,271.918z M538.562,285.469
			l-2.044-1.797l1.866-1.868l2.818,1.803L538.562,285.469z M557.893,272.25l-2.495-1.396l-0.789-4.742l1.233-0.208l-0.115-0.909
			l-0.257-2.773l2.155-1.036l3.275,3.041l-0.244,1.676l0.889,4.242L557.893,272.25z M597.153,282.437h-1.622l-5.91-9.934
			l0.431-3.519l10.75,9.29l-0.516-0.8l-0.374-4.858l-1.729-3.879l-3.008-2.43l-1.021-2.848l1.313-2.144l0.394-1.576l-2.708-4.338
			l1.666-2.337l-1.163-2.135l-1.694-0.321l-0.301-5.225l-1.519-2.941l-1.58,2.682l-2.627,0.396l-1.306-1.714l-0.468-3.297
			l-1.258-2.361l-5.631-5.313l-0.276,0.173l-0.052-0.482l-0.244-0.229l0.204-0.135l-0.269-2.487l-0.533-0.322l-1.661,1.592
			l-4.05-0.071l-0.569-1.24l-1.993,0.776v3.048l-12.761,13.777l0.097,9.703l-2.348,8.486l-4.733,2.316l-13.842-28.742l-0.233-3.03
			l0.948-1.601l0.338-2.752l-0.692-0.697l-0.352,0.16l-0.879,2.463l-2.419,1.792l-3.797-1.237l-2.116-3.996l2.769-1.451
			l-0.021-0.313l-3.06,0.134l-0.121,0.4l-0.428-0.376l-0.185,0.008l0.033-0.141l-5.656-4.974h-5.627l-1.111,0.918h-3.443
			l-0.013,0.149l-9.812-1.363l-0.746-1.72l-0.592,2.968l1.197,1.877l7.591,3.967v2.825l-9.267,13.636l-4.323,0.147l-0.188,2.35
			l-20.847,8.483l-0.709-0.644l-0.028,2.346l3.512,2.393l0.633-0.031l8.932-3.068l0.011,0.033l3.816-1.466l1.966,1.178l-0.199,3.841
			l-3.354,9.554l-18.415,19.721l-0.352-0.241l-4.493,7.053l-0.118-0.073l-0.93,2.547l0.165,5.648l3.243,6.277l0.151-0.02
			l0.029,0.369l0.209,0.405l-0.176,0.021l0.813,10.321l-5.527,5.306l-1.464-0.051l-7.837,6.41l-0.012,7.528l-0.895,5.026
			l-5.215,3.174l0.044,0.038l-0.164,0.235l0.072,5.885l-13.64,13.581l-3.872,0.681l-0.682,0.848l-8.906-0.051l-3.207,2.73
			l-4.573-1.748l-1.99-4.488l2.423-2.823l-3.227-3.048l-2.201-6.319l-0.013-0.001l-4.145-10.475l-0.052-2.119l0.833-3.624
			l-5.021-7.394l-0.485-5.352h0.175l0.635-7.412l4.071-4.37l0.057-2.903l-2.83-10.563l-0.486,0.009l0.389-0.374l-0.064-0.243
			l-1.243-1.615l-0.133,0.104l-0.339-0.715l-0.085-0.111l0.024-0.019l-0.72-1.521l0.102-0.087l-6.937-7.587l3.223-6.232l0.054-1.188
			l-0.185,0.005l0.13-2.597l-1.776,1.328l-2.051-1.115l0.616-2.657l2.017-0.341l-0.985-0.907l-2.257,0.313l-1.623,0.793l-2.37-0.649
			l-3.812-4.248l-2.73-0.133l-0.002,0.091h-2.666l-3.393,1.987l0-0.035l-3.337,1.898l-1.044,0.039l0.095,0.145l-0.582-0.126
			l-0.408,0.016l-0.076-0.12l-5.037-1.089l-4.049,0.711l-3.751,2.656l0.018,0.385l-0.289-0.193l-0.448,0.317l-0.037-0.642
			l-10.15-6.787l0.098-0.117l-4.537-4.384l-0.106,0.092l-0.341-0.524l-0.243-0.234l0.059-0.048l-2.311-3.556l-0.078,0.067
			l-1.3-2.574l-0.039,0.105l-1.811-4.396l-0.107,0.002l0.023-0.206l-0.29-0.703l0.37,0.009l0.101-0.875l-1.621-1.163l0.395-2.014
			l0.816-1.455l0.172-0.125l0.376-10.324l-1.883-2.462l-0.559,0.012l0.251-0.414l-0.329-0.43l0.598-0.013l9.928-16.354l6.796-4.074
			l3.538-9.573l4.297-2.07l1.938-4.305h10.198l3.146-2.39l14.276-2.682l3.545,1.193l5.198-2.095l2.14,1.387l0.09,1.837l-0.691,0.903
			l0.06,0.918l0.725,0.392v3.554l-0.776,1.302l0.018,0.145l2.568,0.906l0.032-0.052l7.271,2.114l1.79,2.789l5.842,2.673l2.416-1.02
			l-0.13-0.564l-1.564-1.512l0.274-1.627l2.765-2.338h5.289l1.798,2.411l4.052,0.588v0.006l2.33,0.08l4.172,1.154l1.647,0.047
			l2.498-2.09h1.637l2.131,1.18l2.751-0.056l1.122-3.575l-0.048-0.004l0.883-3.187l-0.082-2.499l-3.492,3.307l-2.026-0.066
			l-1.648-1.16l0.258-2.516l2.727-0.177l2.159-1.186l-3.213,0.5l-3.579-2.104l-0.418-0.083v1.417l-3.649,1.547l-4.701-0.965
			l-1.428-1.608l0.861-1.168l0.208-0.629l-0.854-0.912l-1.735,0.867l-0.937-2.058l0.547-1.427v-0.574l-1.157-0.967v-1.609
			l1.378-1.508l-0.127,0.029l0.184-0.466l-2.271-0.325l-0.242,1.354l-1.717,0.859l-1.663-1.337l-0.19,0.008l-0.264,0.803
			l4.361,5.156l-1.791,2.16l-0.156,3.357l-1.964-0.176l-2.729-1.454l-0.952-2.142l0.538-1.699l2.285-0.232l-0.734-0.282
			l-4.314-2.166l0.118-1.425l-0.78,0.092l-1.411-2.658v-3.834l-1.626-0.297l-0.335-1.011l-0.452,0.515l-6.608-3.086l-0.878-3.067
			l-0.248-0.217l-0.493,0.734l-2.527-0.664l0.498-2.899l-1.989,0.476l0.369,2.121l1.989,2.935l5.182,5.095l6.047,2.894l-0.555,2.31
			l-1.746,0.159l0.208,1.53l-1.333,3.364l-2.563,1.498l-0.694-6.27l-2.176-2.055l-4.285-1.242l-6.709-7.794l-2.693,0.094
			l-1.846,2.366l-3.769,0.267l-0.898-0.831l-2.479-0.059l-1.155,1.332l-0.375,2.979l-5.618,5.082l-0.073,4.016l-3.506,4.411
			l-6.882,1.693l-3.539-0.238l-2.537-1.377l-3.274,0.381l-1.947-0.662l0.776-2.423l-0.935-1.641l-0.223-1.213l1.537-1.39
			l0.497-6.937l-0.551-3.344l1.519-3.158l1.638-0.12l2.132,0.964h10.098l2.269-3.986l0.064-3.454l-3.916-3.127l-3.853-2.562
			l-0.294-2.331l5.587-0.155l0.691-2.16l1.683-0.395l1.508,1.064l0.525-0.036l3.57-3.886l1.963-0.48l0.464-1.159l-0.06-0.012
			l0.176-0.28l0.196-0.489l0.099,0.021l2.542-4.03l-0.267-0.242l5.063-2.492l-0.013-0.095l0.305-0.049l0.227-0.112l0.014,0.073
			l2.472-0.4v-1.203l-0.009,0.002l-1.83-4.774l0.142-2.874l3.853-4.264l1.439,0.24l1.383,3.707l0.04,1.763l-1.166,1.303l0.615-0.133
			l0.203,0.23l1.416-1.296l1.253-0.304l0.595,0.127l-0.213-1.079l-3.399-5.207l-0.27,0.479l-0.131-1.093l-0.141-0.216l0.096-0.16
			l-0.284-2.369l-0.499,0.8l-4.11,3.979l-3.318,0.18l-1.567-1.575l-1.134-3.486l-0.923-7.129l1.533-4.814l3.012-0.675l0.633-0.366
			l0.296-2.069l1.385-1.047l2.47-2.875l1.261,1.478l2.056,0.106l0.178-0.78l-1.618-0.817l-0.284-1.76l2.036-1.371l5.14-10.197
			l1.58-0.741l-1.062-1.199l7.355-5.919l0.847,1.706l0.301-0.135l0.325-3.083l3.949-0.204l0.99,1.665l0.308,0.103l0.533-2.29
			l6.528-0.677l4.597,1.242v2.234h-0.964l-0.045,0.504l0.965,0.559l0.142,1.313l4.021-0.998l13.645,5.372l2.203,3.95l-2.553,3.865
			l-5.385-0.454l-8.247-1.698v0.638l4.265,1.641l0.626,5.301l2.211,1.541h3.001l0.199-0.404l-2.953-3.795l7.257,0.215l-1.26-2.22
			l3.997-4.293l1.004,1.017l1.966,0.395v-1.172l-1.549-2.726l-2.659-5.125l3.717-1.444l4.884,1.718v3.585l-0.77,1.804l2.186-0.331
			l0.194-3.746l11.502-6.36l1.292,2.165l7.122-2.573l1.335-3.583l10.849,2.01l2.593,1.648l-0.449-2.479l-3.916-1.666l-1.167-7.05
			l2.466-2.105l-1.013-1.362l0.807-4.357l7.846,1.241l1.497,9.683l4.191,5.485l-0.914,6.887l-3.57,2.204l0.197,1.102l5.108-0.499
			l0.915-6.253l-1.392-3.032l2.658-2.08l2.461,0.991v-1.212l-0.976-0.738l-3.159,1.593l-1.894-0.639l-4.937-15.567l1.42-3.209
			l4.61,5.308l2.647-2.286l7.027,2.5l1.921-1.452l-5.834-2.387v-4.27l6.475-8.856l10.18-7.737l10.918-5.983l-1.359-1.543
			l2.488-5.014h2.424l3.599,3.629l8.629-2.827l7.561,2.079v7.141l-10.46,9.087l0.275,2.22l1.936-0.121l0.18-2.539l5.524-5.123
			l13.968-2.386l3.192,3.017l2.925-1.398l-1.1-5.973l14.278,0.732l-2.954,5.517l9.844,1.708l-0.773-3.875l13.159-1.469l0.125-1.893
			l-2.268-0.686l2.097-5.283l13.934-2.807l14.355,3.259l4.048-4.282h9.857l2.168,4.562l12.803-5.041l5.322,2.22l0.253-2.423
			l-3.245-1.639v-2.149l2.885-1.542l15.634-2.728l16.656,5.74l2.288,2.962l2.023-4.082l10.431,3.667l-4.123,5.688l3.356,3.382
			l-1.118,3.921l-7.603-0.723l-6.387-2.362l-2.086-2.797l-1.082,1.092l2.461,5.571l-2.698,3.099l5.237,4.366l4.742,0.907v4.542
			l-3.267-0.25l-2.711,1.46l-3.746,6.359l-2.536,10.235l-2.484-2.233l-2.419,0.607l-0.408,2.903l-6.258,1.63l0.707,8.578
			l2.141-0.178l5.15,6.838l-2.141,2.379l2.494,5.439l-2.424,2.224l-0.216,14.334l-3.461-0.953l-11.821-17.232l0.211-5.768
			l-0.639-3.451l6.198-15.401l-0.412-7.502l0.581-1.167h-2.514l-0.42,1.842l1.719,3.251l-3.414,5.405l-3.824-1.096l-1.216-4.201
			l-2.499,2.351l-2.411,8.779l3.644,0.77l0.63,4.147l-3.059-0.253l-4.759,5.021l-2.001-3.355l0.646-0.865h-3.224l-4.527,2.866
			l-9.018,2.762l-2.255,15.089l-2.343,5.082l5.229,2.016v-1.843l3.946-0.569l6.348,7.757l4.803,10.946l-0.456,13.875l-3.838,11.188
			l-4.52,1.011l-0.983-0.997l-0.396-0.134l-0.846,2.118l-0.026-0.011l-0.482,2.489l-0.646,0.74l1.313,2.363l-2.751,3.327
			l-0.096,2.932l1.264,1.124l-0.009,0.01l5.169,4.215l0.939,4.365l-0.203,2.506l-2.848,3.207l-2.951,0.157l-2.631-5.679
			l-1.133-3.064l1.036-0.799l-0.046-0.208l-1.331-0.595l-3.541-0.205l-0.476-5.47l-1.155-0.483l-1.146,0.189l-3.821,3.848
			l-2.26-1.952l0.38-4.396l-1.564-0.12l-2.538,2.741l-1.839,4.816l2.817,3.014l1.792,0.416l0.988-2.978h7.126l-0.313,3.536
			l-2.493,1.147l-1.99,2.554v3.373l7.786,7.842l0.482,3.91l-1.206,1.351l2.386,0.479l0.232,6.315l-2.552,8.772l-7.641,9.193
			l-8.204,3.102l-2.187,3.087l-2.341-0.333l-0.822-2.271l-1.192-0.132l-2.683,1.156l-2.855,4.783l3.763,6.462l3.215,2.604
			l3.14,4.317l0.77,7.206l-1.75,4.767l-3.057,0.863l-3.22,4.292l-3.59-0.392l-0.225-2.18l-0.984-1.549l-3.944-4.214l-4.065-2.798
			v-1.997l-0.406-0.023l-0.295,0.467l-0.317,9.932l2.28,4.161l3.896,3.753l0.106-0.469l0.493,1.048l0.01,0.009l-0.001,0.009
			l2.982,6.333l1.809,4.48l0.279,2.497h-0.002l0.179,1.602l-2.469,0.197l-1.148-0.65l4.64,4.01l0.683,3.671l3.937,2.475
			l-2.702,7.899l-5.606-0.564L597.153,282.437z M374.3,188.208l2.231-0.758l2.882,1.276l-1.714,1.892h-2.806L374.3,188.208z
			 M387.663,183.313l0.217-2.19l2.769-2.78l0.666,3.159l-0.381,2.812l-0.693,0.099l1.646,0.527v4.882l-1.805,1.725l-2.693-0.456
			l-0.359-5.322l2.535-1.283L387.663,183.313z M400.886,197.249l-0.636-0.693l-3.879-1.954l-0.282-2.214l5.024-0.792l1.799,0.968
			l0.066,4.991L400.886,197.249z M403.617,201.135l-1.239,1.033l-2.12-0.708l-0.086-2.671l2.679-0.547L403.617,201.135z
			 M420.549,200.308l1.128-1.855l2.154,0.066l0.552,0.815h1.411l1.661-0.61l1.158,1.388l-1.437,1.888l-4.537,0.158l-0.836-1.103
			L420.549,200.308z M612.604,305.108l3.002-2.054l8.045,1.685l6.882,1.671l2.63,2.237l3.919,1.81l-2.599,2.351l-2.324,0.537
			l-2.037-1.707l-4.154-0.332l-1.558-1.651l-3.378-0.606l-7.597-1.717L612.604,305.108z M678.836,427.24l-5.478,0.371l-0.351-4.962
			l1.661-6.701l9.885,2.487L678.836,427.24z M711.342,379.714l-7.13,13.177l-3.515,0.883l-9.617,15.563l-10.893,1.569l-1.684-1.691
			l-3.426,1.15l-6.748-5.18l0.801-8.9l-2.482,0.911l-2.535-2.05l4.771-3.522l-0.09-0.553l-6.58,1.152l-1.423-4.306l0.504-3.047
			l-7.91-2.396l-11.725,2.251l-2.083,3.003h-5.842l-10.989,2.096l-5.003-3.359l0.395-2.828l3.149-2.308l0.329-20.669l4.479-12.049
			l12.939-5.454h5.585l1.94-2.685l-0.304-3.701l16.858-10.258l0.312,5.043l2.508-0.584l2.318-6.711l8.981-2.496l8.599,1.668
			l-4.215,11.221l6.68,6.731l2.338-0.217l5.831-19.376h2.978l0.905,8.547l3.544,2.677l-0.58,14.625l3.647,2.547l3.74,11.616
			l-1.544,1.037l4.062,5.183L711.342,379.714z M734.625,437.146l-0.636,3.52l-4.664,0.622l-7.469,6.917l-7.461-3.593l-0.82-3.304
			l12.676-5.473l11.963-10.807l3.042,5.744L734.625,437.146z M756.188,421.893l-12.772,10.98l-1.812-2.282v-4.358l-0.318-4.166
			l4.481-3.31l1.063-4.011l-0.945-10.506l3.16,0.542l4.046,13.673h3.098V421.893z M755.286,352.259l-1.475-1.646l1.272-1.933
			l3.264,2.559L755.286,352.259z"/>
		<polygon fill="#0080FF" points="242.506,67.273 242.509,67.273 240.319,64.963 240.303,64.962 240.318,64.963 		"/>
	</g>
</g>
</svg>
