<?xml version="1.0" encoding="utf-8"?>
<!-- Generator: Adobe Illustrator 16.0.0, SVG Export Plug-In . SVG Version: 6.00 Build 0)  -->
<!DOCTYPE svg PUBLIC "-//W3C//DTD SVG 1.1//EN" "http://www.w3.org/Graphics/SVG/1.1/DTD/svg11.dtd">
<svg version="1.1" id="world-map" xmlns="http://www.w3.org/2000/svg" xmlns:xlink="http://www.w3.org/1999/xlink" x="0px" y="0px"
	 width="784.078px" height="458.627px" viewBox="0 0 784.078 458.627" enable-background="new 0 0 784.078 458.627"
	 xml:space="preserve">
<path id="so_1_" d="M470.411,260.206l3.343,2.278l0.99-0.05l8.301-2.851l0.941,3.038l-0.664,2.565l-1.794,1.423l-4.483-0.285
	l-6.414-3.94L470.411,260.206z"/>
<path id="ae" d="M485.378,227.356l0.712,2.851l8.078,0.713l0.564-5.85l1.557-0.85l0.426-2.139l-2.547,0.714l-2.834,4.284
	L485.378,227.356z"/>
<path id="af" d="M501.852,196.316l1.304,10.208l3.242,0.713l0.304,1.835l-2.326,1.943l4.335,3.498l8.42-3.031l0.672-3.588l5.3-3.308
	l2.034-7.668l1.515-1.633l-1.571-2.736l5.129-3.173l-0.655-0.917l-2.367,0.147l-0.215,2.179l-3.179-0.031l-0.059-2.907l-1.022-1.221
	l-1.72,1.563l0.049,1.436l-2.596,0.982l-4.794-0.303l-6.226,6.521L501.852,196.316z"/>
<path id="al" d="M411.657,182.152v3.776l1.083,2.04l0.775-0.091l1.337-2.432l-0.779-1.09l-0.302-2.695l-1.031-0.959L411.657,182.152
	z"/>
<path id="am" d="M465.479,182.257l3.932,5.128l-1.153,1.353l-2.785-0.483l-3.456-3.097l0.185-2.034L465.479,182.257z"/>
<path id="ao1" d="M399.041,302.536l2.793,10.428l-0.064,3.297l-4.09,4.391l-0.612,7.133l15.73,0.141l5.112,1.851l4.217-0.55
	l-2.458-3.08l0.009-8.798l4.835-0.205v-3.433l-3.926-0.162l-0.785-8.127l-1.655,0.022l-0.894-0.803l-0.974,0.052l-1.292,2.506
	h-4.981l-1.156-1.162l0.344-1.647l-1.36-1.992L399.041,302.536z"/>
<path id="ao_1_" d="M397.344,299.685l1.426,1.852l1.844-1.746l-0.543-1.808l-0.457-0.034L397.344,299.685z"/>
<path id="ar1" d="M248.998,352.91l1.59,1.487l-6.038,8.975l-2.122,2.349l0.736,10.247l4.661,5.663l-3.917,6.832l-2.965,1.278h-3.392
	l0.951,5.333l-5.301,1.82l1.27,4.481l-3.178,10.142l3.924,3.204l-2.122,5.226l-3.605,5.664l1.909,3.946l-4.661,0.744l-3.817-4.69
	l-0.639-14.627l-5.931-24.839l1.794-8.684l-3.818-11.101l2.541-14.41l2.334-2.776l-0.573-2.107l2.999-2.737l6.686,0.459l3.736,3.989
	l4.316,0.074l4.424,2.704l-1.303,3.049l0.312,3.08l6.267-0.296L248.998,352.91z"/>
<path id="ar_1_" d="M235.441,435.316l0.213,4.692l3.604-0.32l3.073-2.031l-5.194-1.065L235.441,435.316z"/>
<path id="at" d="M392.495,166.061l-0.533,1.106l0.457,0.787l1.911-0.393h1.621l1.761,1.49l3.742-0.679l2.753-1.639l0.703-1.106
	l-0.105-1.425l-2.475-1.852l-3.317,0.033l-0.279,1.884l-3.489,1.704L392.495,166.061z"/>
<path id="au1" d="M622.32,360.923l-0.287,20.791l-3.195,2.342l-0.286,2.049l4.357,2.925l10.756-2.05h5.521l2.034-2.932l12.206-2.344
	l8.717,2.64l-0.581,3.514l1.162,3.515l6.688-1.171l0.287,1.753l-4.359,3.219l1.449,1.172l3.195-1.172l-0.87,9.668l6.104,4.685
	l3.489-1.172l1.746,1.755l10.173-1.466l9.594-15.524l3.489-0.877l6.974-12.886l1.745-11.125l-4.359-5.562l1.746-1.172l-3.491-10.838
	l-3.776-2.638l0.581-14.642l-3.491-2.637l-0.868-8.199h-1.745l-5.817,19.326l-3.193,0.296l-7.268-7.324l4.072-10.84l-7.554-1.466
	l-8.432,2.344l-2.325,6.731l-3.775,0.878l-0.289-4.687l-15.402,9.371l0.289,3.516l-2.327,3.219h-5.817l-12.501,5.27L622.32,360.923z
	"/>
<path id="au_1_" d="M675.216,416.859l-1.451,5.856l0.289,4.097l4.357-0.294l4.942-7.611L675.216,416.859z"/>
<path id="az" d="M466.864,180.48l-0.827,1.409l3.857,5.063l1.344-0.434l2.212,2.318l0.959-4.063l2.401,0.385l-0.099-1.166
	l-3.948-3.455l-0.753,2.03L466.864,180.48z"/>
<path id="ba" d="M404.103,173.287l-0.304,0.5l5.497,5.668l2.018-2.966l-0.074-1.169l-1.76-2.139L404.103,173.287z"/>
<path id="bd" d="M568.579,217.664l-1.073,1.942l2.783,5.292l0.082,4.13l0.507,1.105l3.269,0.058l1.852-1.777l1.344,0.811
	l0.271,2.513l1.073-0.67l0.066-3.212l-0.901-0.106l-0.566-2.728l-2.276-0.082l-0.564-1.516l1.392-1.859l0.022-0.92h-4.045
	L568.579,217.664z"/>
<path id="be" d="M376.913,154.92l-0.525,1.311l5.636,3.72l0.379,0.048l0.355-1.037l0.794-0.557l-1.268-1.421h-0.868l-1.188-1.352
	L376.913,154.92z"/>
<path id="bf" d="M367.885,251.392l2.98-0.237l4.89,6.914l-4.539,3.424l-3.284-0.846l-4.416,0.06l-0.713,2.588l-3.704,0.18
	l-1.014-1.385l1.313-4.209L367.885,251.392z"/>
<path id="bg" d="M417.734,176.114l0.131,4.08l1.378,2.867l5.168,0.09l2.326-1.646l2.286-0.909l-0.557-2.606l0.517-1.392
	l-1.163-0.607l-1.6,0.131l-1.255,1.263l-5.259,0.041L417.734,176.114z"/>
<path id="bi" d="M438.027,293.934l3.498-0.073l-0.908,3.063l-0.887,0.771h-1.081l-0.771-2.073L438.027,293.934z"/>
<path id="bj" d="M374.536,272.045h1.738l0.099-4.933l2.193-3.188l-0.098-5.546l-1.992-0.048l-3.415,2.667l1.425,2.722
	L374.536,272.045z"/>
<path id="bn" d="M637.557,271.848l-2.359,2.859l1.934,0.609l1.089-1.525L637.557,271.848z"/>
<path id="bo" d="M210.692,315.71l6.742-2.941l2.228,0.215l1.483,6.191l10.272,3.415l1.697,5.234l4.235,0.533l1.803,4.481
	l-1.27,4.054l-6.891,0.533l-2.54,6.514l-5.407-0.107l-1.696-0.318l-3.121,3.03l-1.541-0.148l-5.3-12.279l1.466-2.195l0.516-8.686
	l-1.31-5.17L210.692,315.71z"/>
<path id="br" d="M256.183,369.828l5.12-9.848l0.187-8.274l9.552-6.162h5.35l4.203-7.118l0.763-13.665l-1.721-3.653l10.125-9.241
	l0.385-10.199l-13.755-6.731l-16.614-5.194l-7.832-0.77l2.104-4.426l-0.572-6.732l-1.713-0.564l-2.532,5.031l-1.326,1.662
	l-3.407-1.507l-11.461,4.037l-3.817-4.808l0.614-5.021l-3.605,3.669l-3.981-2.146l-0.402,0.564l0.009,1.745l3.433,1.844
	l-5.153,5.431l-3.252-0.033l-3.293-3.35l-3.728,0.114l-0.459,3.981l2.138,2.596l-2.523,8.085l-2.95,0.229l-4.694,2.966l-1.146,5.825
	l4.071,4.358l0.746-0.844l2.859-0.77l2.441,4.112l6.988-2.998l2.712,0.157l1.867,6.611l9.971,3.162l1.72,5.273l4.244,0.509
	l2.023,5.037l-1.367,4.481l1.785,2.345l-0.262,3.489l4.784-0.451l4.383,5.538l-0.344,3.891l2.596,2.195l-6.226,9.43L256.183,369.828
	z"/>
<path id="bs4" d="M195.045,222.596l-1.032-0.319l-0.082,1.991l1.27,1.278l0.869-1.278L195.045,222.596z"/>
<path id="bs3" d="M197.101,225.709l-1.425,0.795l1.343,1.915l0.713-0.958L197.101,225.709z"/>
<path id="bs2" d="M201.697,227.144l-1.508-0.083l0.157,0.958l1.106,1.599l0.949-1.041L201.697,227.144z"/>
<path id="bs1" d="M200.984,225.235l-2.457-1.042l-0.475-2.473l0.949-0.402l0.951,1.917l0.95,0.72L200.984,225.235z"/>
<path id="bs_1_" d="M198.608,220.204l-1.27-0.319l-0.238-1.599l-1.343-0.474l0.869-0.878l1.581,0.558l1.188,0.722L198.608,220.204z"
	/>
<path id="bt" d="M568.438,213.544l1.271,1.738l4.291,0.032l-0.436-2.376L568.438,213.544z"/>
<path id="bw" d="M415.334,347.201l1.761,0.54l-0.246,5.035l1.813,0.248l4.16-3.752l4.998,0.539l1.325-3.36l6.323-5.774l-7.593-8.741
	l-0.1-1.437l-0.837-0.246l-2.303,2.123l-5.98,0.146l-0.837,7.454l-2.349,0.54L415.334,347.201z"/>
<path id="by" d="M417.095,146.539l1.229,2.024l-0.49,1.614l0.082,1.278l0.449,1.532l2.54-1.441l3.155,0.082l2.213,0.909h5.612
	l1.638-3.925l0.983-1.482v-0.99l-3.522-4.957l-3.114-1.237l-2.539-0.287l-2.214,0.704l0.085,2.229l-3.072,3.883L417.095,146.539z"/>
<path id="bz" d="M166.331,241.66l-0.041,2.99h0.688l2.343-4.374h-1.59L166.331,241.66z"/>
<path id="ca21" d="M128.368,50.176l1.63,2.466l0.819,3.293l4.08,1.024l2.859-3.08l2.45,1.237l6.939,0.613l4.898-2.056l0.819,6.783
	h2.859v-2.875l2.859,0.204l7.144,8.43l4.694,2.877l-2.449,3.907l1.025,1.024l9.167,1.851l0.205,4.113l2.45,0.411l0.614-6.17
	l3.875-1.023l2.86,4.318l6.119,2.875l3.064,0.613l2.04-2.465l0.205-3.909l3.67-2.262l1.221,3.294l-3.269,5.76l0.41,2.875
	l1.836-2.875l3.67-3.293l0.205-4.318l-2.04-3.295l0.614-2.669l4.899-2.467l2.245,1.647l0.41,14.395l3.466-3.08l2.04,1.236
	l-2.859,4.932l3.67,0.82l5.31-8.226l4.489,4.726l-1.835,8.43l-4.49,2.467l-4.284-2.056l-7.75,1.646l0.819,2.67L210,98.288
	l-6.324,1.441l-7.144,5.554l-6.324,8.431l-0.819,2.669l4.284,1.646l1.63,4.113l5.915,5.964l9.389,4.112l-2.04,9.455l-0.205,2.67
	l2.45,1.645l3.269-4.316l0.41-8.226l5.104-0.204l2.449-4.728l0.411-7.192l6.529-12.747l8.159,2.875l4.285,5.964l-1.836,5.963
	l3.269,1.852l7.955-5.351l2.244,14.598l7.349,8.84l0.205,4.522l-8.159,2.057l-3.875,4.111l-8.159-1.851l-4.08-0.206l-7.144,5.554
	l4.284-1.025l5.309-1.022l1.024,1.236l-1.425,4.521l0.205,4.113l2.45,1.646l2.449-0.615l1.228-1.851h1.63l-2.654,4.933l-5.103,0.205
	l-2.245,3.294h-2.859l-0.818-2.467l4.08-4.112l-4.899,1.646l-0.221-6.989l-1.409-0.818l-4.285,1.851l-0.409,3.499h-9.797
	l-8.371,5.762l-11.223,3.704l-1.221-1.647l5.653-8.438l-3.211-3.09l-2.039-3.916l-4.154-3.172l-4.456-0.368l-7.988-5.596
	l-57.927-9.518l-0.958-3.925l-5.309-4.932v-4.112l0.819-3.703l-0.41-2.055l-2.04-2.058l-0.41-3.293l5.31-3.704l-3.269-17.678
	l-4.49-0.206l-4.08-5.349L128.368,50.176z"/>
<path id="ca20" d="M108.387,115.507l-1.393,2.67l0.483,1.892l0.909,0.567l-0.213,0.769l-0.975,0.279l0.279,2.811l1.048,1.056
	l0.835-0.909l-1.048-2.736l0.622-2.18l1.532-2.039l-1.113-1.893L108.387,115.507z"/>
<path id="ca19" d="M112.991,131.515l-1.254,0.493l2.302,2.67l0.557,3.162l2.302,2.457l1.95-0.352v-3.228l-2.367-1.475
	L112.991,131.515z"/>
<path id="ca18" d="M238.668,64.061l-1.45,1.466l1.27,2.015l5.998,0.73l-3.818-4.03L238.668,64.061z"/>
<path id="ca17" d="M165.65,39.714l0.18,3.293l-6.538,6.774l1.639,5.488l4.719-1.278l2.728-4.031l6.897-2.564l5.628-0.368
	l-4.359-4.76l-2.179,1.646l-1.638-0.549l-0.909-2.015l-2-2.015L165.65,39.714z"/>
<path id="ca16" d="M174.188,30.013l-1.45,2.565l7.086,2.563l2.54-3.843l1.09,2.565h1.818l3.449-3.843l-4.179-1.098l-1.639-1.277
	l-2.179,2.195L174.188,30.013z"/>
<path id="ca15" d="M186.541,35.14l-5.628,2.378v1.827l7.267,2.744l-1.639,1.828l1.09,2.375l4.539-2.015h3.818l1.818,2.925
	l3.089-3.113l-0.73-2.933l-2.54,0.917l-0.36-3.661l1.27-2.195h-1.27l-1.999,1.278l-0.909,0.729l0.549,2.564l-1.45,1.098l-2.179-0.18
	l-0.549-3.295L186.541,35.14z"/>
<path id="ca14" d="M193.987,29.464l-0.549,1.826l3.449,1.647l2.54-1.466l-0.18-1.098L193.987,29.464z"/>
<path id="ca13" d="M196.708,26.351l-2.539,0.917l0.18,1.28l5.628-0.369l-0.18-1.279L196.708,26.351z"/>
<path id="ca12" d="M208.88,29.464l-0.36,1.277l-0.909,1.279v1.828l3.449-0.549l3.63,3.113h1.27V33.3l-3.63-4.031L208.88,29.464z"/>
<path id="ca11" d="M218.147,33.124l1.45,1.647l-1.27,2.195l0.909,2.376l3.998-2.196v-1.645l-2.36-2.745L218.147,33.124z"/>
<path id="ca10" d="M223.414,28.916l0.18,2.925h4.907l1.27,1.098l-0.18,1.277l-4.359,0.549l3.089,4.211l4.179,0.729l5.808-2.563
	l-8.356-12.632l-2.54,1.646l0.18,2.194l-2.909-1.097L223.414,28.916z"/>
<path id="ca9" d="M181.092,49.601l-6.897,1.827l-3.999,3.481l0.36,3.843l7.266,2.195l-1.639,3.663l-5.268-3.296l-1.45,2.745
	l3.449,2.376l-0.18,3.842l5.268,1.466l6.357-0.368l1.089-2.015l4.719,5.308l3.269-1.096l0.549-3.663l2.36,1.646l0.36-3.662
	l-2.908-1.827l0.18-11.526l-2.54-2.015l-2.72,3.662L181.092,49.601z"/>
<path id="ca8" d="M203.253,57.654l-2.359-1.098l-1.27,1.646l2.54,4.032l0.181,3.842l5.448-3.294v-4.759l1.999-2.015l-1.999-1.466
	h-3.269L203.253,57.654z"/>
<path id="ca7" d="M214.878,56.006l-3.817,3.114l0.909,3.842h2.359l1.089-2.015l1.639,1.646l1.639-0.18l4.358-3.662L214.878,56.006z"
	/>
<path id="ca6" d="M214.51,49.961l-0.909,1.827l3.998,1.468l1.09-1.647L214.51,49.961z"/>
<path id="ca5" d="M212.149,43.006l-3.997,0.549l-2.36,2.193l4.359,0.181l-1.271,3.293l0.909,1.467l1.27-0.18l3.089-4.939
	L212.149,43.006z"/>
<path id="ca4" d="M219.056,41.729l-2.178,0.729l0.359,2.924l3.63,2.376l0.181,1.826l-1.089,1.099l0.549,3.663l13.983,4.571
	l3.817,1.278l3.817-3.293l-4.539-3.662l-4.178,1.098l-5.808-0.549l-2.179-2.195l-0.549-6.038l-3.629-1.827L219.056,41.729z"/>
<path id="ca3" d="M230.492,60.766l-3.997-0.369l-4.719,1.826l-2.54,3.475l0.729,9.518l7.808,0.37l7.446,3.661l5.269,6.038
	l3.998-0.179l-1.09,5.667l-3.628,6.038l-3.998,1.825l-2.909-0.547l-1.45-1.278l-2.179,2.925l0.909,2.925l3.089,0.18l3.817-1.827
	l3.269,8.421l8.175,5.31l5.628-7.135l-4.719-7.685l2.728-3.112l3.817,6.405l6.898-6.038l-1.27-2.745l-4.72,1.467l-3.268-8.971
	l3.089-5.12l-6.178-6.586l-3.448,2.375l-3.269-7.136l-6.896,0.917l-1.819-8.602l-5.627,3.844l-0.549,4.758h-3.089l0.36-4.21
	L230.492,60.766z"/>
<path id="ca2" d="M232.859,43.374v1.647l-3.998,0.917l1.089,1.827l4.539,1.827l5.087,0.55l3.631,2.563l3.629-2.016l-2.541-2.564
	h3.269l1.999-2.195l4.908-0.729v-1.098l-2.728-1.827l0.359-2.017l7.627,1.278l11.265-4.391l-4.179-1.278l1.09-1.466h8.716
	l1.451-1.466l-17.621-6.226l-4.179-1.466l-4.539,3.295l-5.088-4.211l-2.728-0.18l-0.549,3.482l-3.447-3.113l-3.998,1.279
	l0.729,2.015l5.998,1.28l-0.36,2.925l3.269,2.014l7.997-2.014l0.18,2.744l-6.537,3.113l-3.998-3.113l-3.63,0.369l3.63,5.127
	l-1.819,0.918l-2.728-2.376l-1.999,1.277l1.819,3.475h3.088l-0.729,3.294l-2.54-0.368l-3.269-3.483L232.859,43.374z"/>
<path id="ca1" d="M216.672,93.749l-3.466,4.358l-0.213,4.801l3.031-1.746h3.678l2.597,2.401l2.384-1.968L216.672,93.749z"/>
<path id="ca_1_" d="M258.87,150.441l-8.658,8.291l0.868,1.965l10.602,3.924l1.516-2.614l-0.868-4.358l-3.466,0.434l-1.95-2.179
	l3.245-3.269L258.87,150.441z"/>
<path id="cd" d="M399.662,301.718l8.447-0.148l1.714,2.435l-0.067,1.793l0.632,0.574h4.194l1.205-2.369h1.712l0.696,0.703
	l2.349-0.064l0.698,8.257l4.063,0.134v0.639l10.918,4.924l0.509,0.958h2.284l-0.254-3.457l-4.128-1.982l0.256-2.621l1.777-4.163
	l4.063-0.132l-3.491-11.584l0.065-4.924l5.521-8.635l0.064-1.21l-0.829-0.452l0.033-2.344l-1.005-0.089l-1.017-1.295l-16.67-0.754
	l-3.059,2.975l-5.005-3.293l-1.761,1.081l-1.276,10.757l-3.164,2.439l-0.949,2.164l0.17,3.204l-5.703,4.66l-1.516-0.687l0.204,0.891
	L399.662,301.718z"/>
<path id="cf" d="M404.808,275.779l3.816,4.129l1.507-1.949l2.399,0.099l0.516-1.901l2.36-1.475l4.898,3.376l2.826-2.803l10.97,0.483
	l-10.176-10.503l1.368-0.85l0.187-1.852l-2.31-1.09h-3.394l-5.464,5.418l-0.187,2.227l-4.334-0.137l-0.139,0.949l-2.826-0.288
	l-2.547,4.84L404.808,275.779z"/>
<path id="cg" d="M400.99,282.719l-0.049,1.19l3.915,0.098l0.139,10.168l-3.579-0.099l-2.074-1.614l-1.604,0.902l-0.074,0.449
	l0.828,0.401l0.238,2.089l-2.212,1.9l0.474,1.004l2.451-1.901h1.179l0.374,1.137l1.559,0.662l4.996-4.226l-0.099-3.09l1.041-2.514
	l3.204-2.377l0.858-8.035l-2.276,0.01l-2.636,3.611L400.99,282.719z"/>
<path id="ch" d="M386.17,165.456l-3.575,3.801l0.074,0.384l1.466-0.458l1.322,1.835l2.229-0.786l1.54,1.196l0.631-0.36l1.901-2.982
	l-0.485-0.458l-1.875-0.048l-0.909-1.861L386.17,165.456z"/>
<path id="ci" d="M352.713,277.991l3.503-2.48l4.36-0.765l4.448,0.961l-2.269-3.433l-0.665-2.099l0.665-6.201l-3.975,0.188
	l-1.799-1.718l-3.786,0.098l-1.802,0.287l0.188,4.194l-0.949,0.385l-1.14,2.1l2.933,3.43L352.713,277.991z"/>
<path id="cl2" d="M232.262,431.474l-3.498,7.686l6.038,0.639l0.106-5.12L232.262,431.474z"/>
<path id="cl1" d="M231.074,430.271l-2.629,2.906l-0.32,3.417l-5.087-2.884l-5.407-7.793l-1.589-2.779l2.228-2.884l-0.213-3.63
	l-2.54-1.064l-2.015-1.489l0.426-2.033l2.646-0.745l0.532-11.74l-4.128-2.351l-2.695-61.106l0.697-1.21l5.276,12.165l1.688,0.033
	l0.548,1.941l-2.245,2.717l-2.581,14.643l3.67,11.272l-1.696,8.535l5.98,25.102l0.631,14.681l4.285,4.955L231.074,430.271z"/>
<path id="cl_1_" d="M213.617,399.558l-1.057,1.598l0.533,2.778l1.057,0.105l0.532-3.522L213.617,399.558z"/>
<path id="cm" d="M390.192,275.968l2.638,2.429l-0.188,3.752l14.468-0.337l1.181-1.325l-4.146-4.465l-0.614-1.614l2.638-4.938
	l-1.794-3.278l-1.506-0.811v-1.662l1.743-1.141l0.099-5.178l-1.383-0.155l-0.022,2.722l-6.079,11.345l-3.721,0.188l-2.547,1.753
	L390.192,275.968z"/>
<path id="cn1" d="M547.958,149.636l-2.834,7.128l-3.908-0.206l-4.122,9.02l3.498,4.456l-7.208,9.955l-3.703-0.624l-2.476,3.113
	l0.615,1.868l2.884,0.205l1.441,3.317l2.885,0.624l8.856,11.411v5.809l4.324,2.695l4.735-0.828l5.973,3.525l7.208,2.072l3.497-0.416
	l3.917-0.418l8.233-5.391l2.68,0.417l1.023,2.433l2.27,0.68l3.092,4.562l-2.057,4.562l1.236,3.113l3.498,1.243l0.613,3.736
	l4.122,0.416l0.612-1.868l5.974-3.114l3.702,0.206l4.324,4.768l2.884-1.243l1.853,0.205l0.828,2.286l1.441,0.205l2.055-2.901
	l8.233-3.112l7.415-8.921l2.474-8.506l-0.206-5.603l-3.089-0.621l1.851-2.074l-0.41-3.318l-7.823-7.879v-3.94l2.261-2.901
	l2.264-1.042l0.203-2.286h-5.766l-1.033,3.113l-2.68-0.622l-3.293-3.523l2.057-5.39l2.884-3.113l2.68,0.205l-0.411,4.769l1.44,1.244
	l3.499-3.523l1.238-0.205l-0.411-2.696l3.295-3.94l2.473,0.205l1.442-4.562l1.688-0.892l0.172-2.843l-1.638-1.721l-0.141-4.488
	l3.156-0.206l-0.206-11.576l-2.212,1.327l-0.817,2.966l-3.693-0.008l-10.708-6.022l-7.733-9.323l-7.849-0.082l-1.995,1.737
	l2.539,5.817l-0.887,5.457l-3.161,1.311l-1.777-0.14l-0.132,5.399l1.852,0.418l3.295-1.45l4.324,2.072v2.074l-3.09,0.205
	l-2.475,5.39l-2.26,0.205l-8.03,10.577l-8.437,3.734l-5.769,0.418l-3.907-2.696l-5.563,2.908l-5.974-1.868l-1.441-3.941
	l-10.085-0.623l-5.352-8.708h-2.262l-1.819-4.039L547.958,149.636z"/>
<path id="cn_1_" d="M621.222,231.64l-1.957,0.55l-1.408,1.736l1.172,2.285l1.718,0.153l1.958-1.734l0.467-2.285L621.222,231.64z"/>
<path id="co" d="M206.612,255.898l-1.688-0.172l-11.157,9.2l-1.18,3.233l-1.524,0.174l0.679,7.15l-3.89,9.544l4.227,3.578
	l5.416,0.345l3.719,5.456l5.407,0.175l-0.173,4.085h2.024l2.195-7.495l-2.032-2.553l0.508-4.768l4.227-0.345l-0.508-11.076
	l-9.471-3.063l-2.195-5.964L206.612,255.898z"/>
<path id="cr" d="M176.833,260.158l1.139,2.229l0.926,1.229l-1.245,3.694l-2.376-1.672l-3.882-3.556v-2.351L176.833,260.158z"/>
<path id="cu" d="M179.676,228.978v1.043l4.358,0.081l2.056-1.196l0.319,0.877l4.276,1.041l3.801,3.433l-0.869,1.196l0.157,1.36
	l3.17,0.796l3.17-1.437l1.426-1.434l-2.056-1.04l-10.609-6.226l-3.719-0.401L179.676,228.978z"/>
<path id="cv2" d="M316.249,248.328l-1.556,0.894l1.113,0.891l1.335-0.67L316.249,248.328z"/>
<path id="cv1" d="M320.074,250.131l-1.015,0.901l0.723,1.335l1.736-0.777L320.074,250.131z"/>
<path id="cv_1_" d="M317.855,252.661l-1.303,0.779l1.401,1.875l1.108-0.579L317.855,252.661z"/>
<path id="cy" d="M443.761,198.601l1.007,0.73l-3.121,2.956l-1.491-0.049l-1.105-0.778l0.148-1.448l2.26-0.147L443.761,198.601z"/>
<path id="cz" d="M398.884,161.76h2.433h1.197l1.942,1.385l3.597-2.99l-3.491-2.489l-3.458-1.673l-2.367,0.427l-3.212,2.064
	L398.884,161.76z"/>
<path id="de" d="M384.72,147.84l2.925-0.474v-2.063l2.449-0.403l1.344,1.352l1.416,0.155l2.212-0.958l1.975,0.557l1.736,1.509
	l0.237,5.644l1.736,2.311l-2.284,0.319l-3.795,2.383l0.32,0.795l3.394,3.179l-0.239,1.589l-3.154,1.589l-2.923,0.082l-0.714,1.507
	h-1.498l-0.712-1.589l-2.606-0.64l-0.083-2.622l-1.316-0.73l0.107-1.763l-0.385-1.259l-1.879-1.729l0.392-2.706l2.049-0.958
	L384.72,147.84z"/>
<path id="dk2" d="M389.332,134.423l-3.398,3.761l-0.122,2.449l1.549,4.041l2.425-0.459l-0.302-3.301l1.672-1.868l-0.033-1.467
	l-1.179-3.054L389.332,134.423z"/>
<path id="dk1" d="M391.09,141.321l-1.005,0.217v1.5l1.068,0.83l0.946-0.237l-0.231-1.424L391.09,141.321z"/>
<path id="dk_1_" d="M394.244,139.894l-0.899,0.218l-1.001,0.917l0.426,1.852l1.224,0.48l-1.265,0.507l-0.241,0.649h1.899l0.57-1.042
	l-0.728-0.358l0.237-0.912l0.868-1.142l-0.237-0.987L394.244,139.894z"/>
<path id="dj" d="M466.921,257.339l-0.469,2.751l3.245-0.049l0.05-4.048l-1.188-0.729L466.921,257.339z"/>
<path id="dm" d="M227.371,243.691l-0.721,1.532l0.869,1.162l1.081-0.941L227.371,243.691z"/>
<path id="do" d="M214.296,240.054l-4.334-2.834l-2.736-0.968l-0.548,5.232l0.548-0.044l0.721,1.385l0.942-1.091l2.745-0.729
	l2.384,0.508L214.296,240.054z"/>
<path id="dz" d="M386.964,196.677l-3.341-1.124l-13.91,2.613l-3.03,2.302l1.851,9.562l-5.531,0.221l-3.325,5.351l-7.923,1.9
	l0.024,3.89l26.093,19.949l4.446,0.377l14.836-11.592l-1.482-1.868l-2.784-0.378l-1.671-2.8v-11.594l-1.116-1.122l0.189-2.991
	l-2.967-2.99l-0.369-3.178l1.294-0.935l-0.559-3.367L386.964,196.677z"/>
<path id="ec1" d="M187.335,285.447l-3.874,2.408l-0.279,3.574l-0.778,1.17l2.441,2.343l-1.056,1.155l0.245,2.95l4.366,1.041
	l6.611-7.824l-0.016-2.727l-3.17-0.206L187.335,285.447z"/>
<path id="ec_1_" d="M158.474,287.355l-0.508,2.255l-0.942,0.949l0.647,1.162l1.662-0.653l0.794-1.385l-0.508-1.456L158.474,287.355z
	"/>
<path id="ee2" d="M422.918,128l-4.587-0.164l-2.908,1.777l-0.04,1.319l1.882,1.777l5.86,0.992L422.918,128z"/>
<path id="ee1" d="M413.132,128.704l-1.24,0.417l1.24,0.215l0.564,0.653l0.674-0.807l-0.672-1.151L413.132,128.704z"/>
<path id="ee_1_" d="M413.66,130.363l-1.766,0.79l-0.609,1.052l0.609,0.685l2.239-0.83l1.077-0.712L413.66,130.363z"/>
<path id="eg" d="M426.328,209.432l2.188,0.059l4.259,1.179l2.023,0.058l2.508-2.098h1.17l2.131,1.18h2.697l0.482-0.033l1.705,4.9
	l0.483,1.581l0.451,2.368l-0.805,0.589l-1.385-0.696l-1.598-5.21l-1.441-0.105l-0.105,1.77l0.958,3.063l7.677,9.503l0.165,4.08
	l-2.236,2.582l-21.004-0.239L426.328,209.432z"/>
<path id="er" d="M454.821,251.735l-0.205-4.827l3.245-3.781l0.877,0.672l1.598,5.342l7.669,5.707l-1.394,1.714l-5.613-4.824
	L454.821,251.735z"/>
<path id="es4" d="M366.056,178.252h-10.438l-2.105-0.952l-1.015,0.074l-1.229,2.554l0.434,2.63l3.99,0.369l0.508,1.679l-1.737,9.79
	l0.074,1.754l2.824,1.533l3.259,0.219l6.521-1.604l3.188-4.012l0.074-4.087l5.653-5.113l0.285-2.261l-5.144-0.074L366.056,178.252z"
	/>
<path id="es3" d="M339.236,218.172L337.803,219l0.664,0.672L339.236,218.172z"/>
<path id="es2" d="M334.255,218.328l-1.777,0.451l0.887,1.344h1.334L334.255,218.328z"/>
<path id="es1" d="M330.028,216.985l-1.114,1.122l1.557,1.344l0.887-2.015L330.028,216.985z"/>
<path id="es_1_" d="M376.495,188.255l-1.303,0.442l0.289,1.171h1.885l0.794-0.876L376.495,188.255z"/>
<path id="et" d="M448.906,265.711l5.962-13.271l5.923,0.033l5.252,4.563l-0.369,3.76h4.071l0.418,2.262l6.586,3.939l4.062,0.205
	l-7.723,8.298l-10.61,3.27h-2.627l-4.687-3.998l-1.852-0.777l-3.587-5.285l-2.369,0.033l-0.277-2.425L448.906,265.711z"/>
<path id="fi" d="M413.924,106.11l1.697,0.745l1.046,1.965l-1.046,1.361l-5.261,5.75l-0.901,3.032l1.203,4.391l4.056,3.032
	l5.407-2.573l4.357-0.606l4.056-6.513l-3.007-7.119l-2.861-6.816l0.453-4.391l-1.803-0.303l-0.466-3.203l-2.426-3.957l-2.688,1.859
	l-1.055,4.317l-2.851-1.712l-3.967-0.967l-0.885,1.033l1.521,1.377l2.778-0.051l2.236,3.612L413.924,106.11z"/>
<path id="fk1" d="M251.03,426.624l-2.154-0.237l-2.146,1.442l1.556,1.688L251.03,426.624z"/>
<path id="fk_1_" d="M253.177,425.543l-0.712,2.286l-2.032,1.801l0.123,0.598l3.464-1.327l1.434-1.801L253.177,425.543z"/>
<path id="fr6" d="M375.92,156.706l-1.81,0.443l-3.619,3.94l-1.09,0.074l-1.45-1.024l-0.94,0.221l-0.724,2.261l-5.292,0.147
	l0.148,1.17l3.62,2.41l4.204,3.358l-0.074,4.015l-2.243,3.939l4.859,2.335l4.931,0.146l1.521-1.754l3.115,0.074l0.868,0.803
	l3.113-0.22l1.598-2.049l-2.032-2.408l-0.148-1.532l0.435-1.678l-1.016-1.458l-1.736,0.507l-0.22-1.312l3.843-4.235v-2.555
	l-2.225-0.728l-1.358-0.936L375.92,156.706z"/>
<path id="fr5" d="M246.262,273.938l4.793,2.989l-2.507,4.98l-0.909,1.146l-2.663-1.531l0.075-5.366L246.262,273.938z"/>
<path id="fr4" d="M496.331,339.941l-1.869,0.122l-0.122,1.633l1.245,0.256l1.868-0.878L496.331,339.941z"/>
<path id="fr3" d="M474.375,316.946l0.622,1.385h1l0.497-1.761L474.375,316.946z"/>
<path id="fr2" d="M229.829,247.909l-0.869,0.804l0.647,1.311l1.228-0.36L229.829,247.909z"/>
<path id="fr1" d="M390.2,179.856l-1.6,1.607l-0.145,1.458l1.302,0.803l0.509-0.072l0.287-2.122L390.2,179.856z"/>
<path id="fr_1_" d="M225.347,242.453l-1.228,0.507l0.434,1.09l1.441-0.941l-0.287-0.295L225.347,242.453z"/>
<path id="ga" d="M397.211,282.81l-0.099,2.037l-4.62-0.098l-2.826,5.464l6.647,7.268l1.644-1.377l-0.049-1.426l-1.131-0.523v-1.003
	l2.549-1.613l2.263,1.715l2.5,0.048l-0.052-8.593l-3.957-0.185l-0.05-1.805L397.211,282.81z"/>
<path id="gb1" d="M364.222,132.439l-1.5,2.271l0.598,0.909h3.458v1.517l-0.901,1.21l0.598,3.179l1.951,3.784l1.498,3.481
	l2.401,0.909l1.047,1.819l-0.146,1.663l-1.5,0.909l-0.148,0.753l1.047,0.607l-0.901,1.211l-2.104,0.909l-4.056-0.452l-6.315,2.877
	l-2.105-1.057l6.014-3.483l-0.755-0.451l-3.154-0.304l1.951-2.874l0.302-2.427l2.556-0.303l-0.451-4.693l-3.008-0.147l-0.899-1.057
	l0.146-3.482l-1.801,0.148l1.801-6.055l3.31-2.426L364.222,132.439z"/>
<path id="gb_1_" d="M357.916,142.589l-2.704,0.304l-0.148,2.427l1.803,1.21l1.949-0.45l0.755-1.361L357.916,142.589z"/>
<path id="ge" d="M453.797,177.563l2.679,3.498l3.343,1.54l2.057-0.009l3.53-0.958l0.887-1.385l-10.446-3.907L453.797,177.563z"/>
<path id="gh" d="M362.765,270.046l0.917,2.155l2.393,3.752l1.326-0.05l3.621-2.059l-0.254-11.708l-2.802-0.818l-3.926,0.105
	L362.765,270.046z"/>
<path id="gl2" d="M261.828,51.327l-1.114,1.779l2.008,2.006l-0.894,2.008l2.9,3.785l3.564-1.114l4.678-0.441l5.35,5.792l3.564,9.575
	l-2.891,6.013l4.005-0.671l2.231,1.336l0.219,2.899l-4.897,0.221l2.671,2.67l3.342,0.672l-7.35,9.798l-0.892,6.013l1.557,4.898
	l-1.114,2.9l2.007,6.234l3.785,4.235l1.114-0.219l2.449-0.672l0.222,3.563l1.556,2.229l2.892-0.222l2.23-8.241l6.684-8.242
	l10.028-4.007l6.234-7.798l2.89,1.334h6.013l4.899-4.897l6.015-2.449l0.671-3.785l-3.785-3.343l-3.342-1.113l-1.786-4.679
	l4.235-2.449l6.685,3.564l2.23-2.449l-3.564-2.006l7.578-10.249l-1.335-4.456l-3.565-0.22l1.334-4.007l4.457-2.007l9.133-8.019
	l-2.668-2.894l-10.249,0.893l-5.35,5.35l3.123-6.905l-3.565-0.893l-2.006,3.564l-2.892-2.45l-8.021,0.892l2.23-3.563l13.14-0.442
	l-3.343-4.457l-14.254-2.67l-5.79,0.892l0.22,2.901l-6.013-2.007l0.219-2.007l-4.236,0.891l-0.893,2.23l4.457,1.557l-4.678,3.342
	l-3.343-3.785l-4.678-1.334l-0.672,3.563h-4.679l-1.786-3.786l-7.349-1.114l-4.008,2.006l-0.22,2.67l-5.12-0.672l-3.122,1.335
	l0.222,3.121v1.559L265.617,46l-2.67-1.779l-1.787,2.893l2.672,2.899l5.57-0.672l0.443,1.786l-4.235,2.009L261.828,51.327z"/>
<path id="gl1" d="M279.654,86.079l1.334,2.008l-0.671,2.449h-1.336l-1.786-2.008l0.442-1.557L279.654,86.079z"/>
<path id="gl_1_" d="M335.345,80.509l3.785,1.115l-0.222,3.121l-4.006-2.007l-0.893-1.114L335.345,80.509z"/>
<path id="gm" d="M332.085,254.718l-0.105,0.909l5.667-0.082l0.288-0.844l-0.123-0.852l-1.631,0.665L332.085,254.718z"/>
<path id="gn" d="M334.976,262.583l2.492,3.833l3.245-2.817l3.327-0.147l2.77,3.678l2.351,1.552l0.884-1.722l0.787-0.442
	l-0.058-3.784l-1.564-4.49l-4.8,0.533l-5.939-0.474l-0.033,1.521L334.976,262.583z"/>
<path id="gq1" d="M389.389,278.533l-0.374,1.614l1.127,0.614l1.085-0.811l-0.378-1.664L389.389,278.533z"/>
<path id="gq_1_" d="M392.79,282.857l-0.052,1.14l3.719,0.188l-0.049-1.285L392.79,282.857z"/>
<path id="gr1" d="M413.86,188.573l-0.091,1.09l3.795,1.908l1.81,0.696l-0.949,1l-2.114,0.215l-0.304,0.958l0.731,1.646l2.367,1.261
	l1.033,0.092l0.132-2.826l1.549-1.869l-4.226-4.997l0.557-1.695l0.992-0.041l1.507,1.212l0.95-0.475l0.303-1.696l3.536,0.506
	l1.075-3.07l-1.851,1.303l-5.432-0.132l-3.531,1.828L413.86,188.573z"/>
<path id="gr_1_" d="M422.091,199.216l1.334,0.041l0.56,0.827h1.943l1.29-0.474l0.436,0.523l-0.859,1.129l-3.793,0.132l-0.69-0.909
	l-0.729-0.434L422.091,199.216z"/>
<path id="gt" d="M158.401,249.132l4.858,3.556l4.898-6.089l-0.835-1.26l-1.672-0.06v-3.565l-1.252-0.762l-3.793,1.131l1.45,3.341
	L158.401,249.132z"/>
<path id="gw" d="M333.485,259.788l1.148,2.271l3.218-2.769l0.033-0.854l-3.794-0.548L333.485,259.788z"/>
<path id="gy" d="M232.27,267.653l5.915,5.356l-2.352,2.719l-0.188,1.614l3.088,3.188l-0.074,3.062l-5.374,2.048l-3.219-4.351
	l0.688-5.227l-1.376-3.89L232.27,267.653z"/>
<path id="hn" d="M168.781,246.886l7.569-0.287l2.245,2.67l-1.4-0.32l-2.696,0.114l-3.522,3.31l-1.507,3.353l-0.991-0.527
	l-0.008-3.669l-2.179-1.459L168.781,246.886z"/>
<path id="hr" d="M404.775,170.19l-2.892,2.383h-2.934l-0.354,2.064l1.346,0.353l0.672-1l1.055,0.925l0.845,2.95l5.789,2.704
	l0.574-0.654l-5.873-6.062l0.598-1.105l5.581-0.214l0.564-1.778l-3.638,0.105L404.775,170.19z"/>
<path id="ht" d="M204.26,235.909l2.819,0.295l-0.335,3.457l-0.279,1.818l-3.285-0.18l-0.582,0.877l-1.007-0.072l-0.36-1.894
	l3.464-0.288l-0.213-1.965l-1.589-0.654L204.26,235.909z"/>
<path id="hu" d="M405.693,165.635l-0.951,1.491l0.073,2.278l1.517,0.777l4.661,0.14l6.497-5.473l0.031-1.211l-0.703-0.352
	l-4.694,2.131L405.693,165.635z"/>
<path id="id11" d="M590.625,270.472l-0.228,1.868l5.561,9.346h1.621l11.591,19.392l4.64,0.467l2.317-6.775l-3.712-2.334
	l-0.695-3.735L590.625,270.472z"/>
<path id="id10" d="M645.552,296.309l1.853,2.271l-1.205,3.407v0.65h2.736l0.968-8.521l0.885,0.246l1.606,7.784l1.529,0.41
	l1.451-3.328l-1.451-5.031l-1.203-2.189l3.783-2.758l-0.887-1.22L652,290.38h-0.969l-1.768-2.597l0.566-1.137l2.98-1.459
	l4.506,1.376l1.369-0.084l3.38-3.161l-1.366-1.376l-3.139,2.433h-2.016l-3.055-1.458l-2.171,0.081l-2.416,3.893l-1.532,6.732
	L645.552,296.309z"/>
<path id="id9" d="M665.754,281.063l-1.531,3.73l2.416,3.163h0.806l1.045-2.108l0.566-0.729l-1.047-1.139l-1.533-0.564
	L665.754,281.063z"/>
<path id="id8" d="M670.506,293.312l-3.299,0.731l-0.968,1.057l0.801,1.378l2.172-0.812l1.367-0.811l2.015,1.624l0.887-0.731
	l-1.605-1.949L670.506,293.312z"/>
<path id="id7" d="M615.765,303.855l-2.253,1.54l0.483,1.294l7.169,1.621l3.621,0.65l1.53,1.621l4.104,0.328l1.935,1.621l1.77-0.409
	l1.612-1.459l-2.981-1.377l-2.573-2.188l-6.685-1.623L615.765,303.855z"/>
<path id="id6" d="M639.196,310.908l-1.766,0.976l1.046,1.138l2.572-0.974L639.196,310.908z"/>
<path id="id5" d="M642.251,310.181l0.32,1.54l1.852,0.483l0.722-0.895l-0.804-1.22L642.251,310.181z"/>
<path id="id4" d="M646.683,314.234l-2.253,0.329l2.016,1.705h1.605L646.683,314.234z"/>
<path id="id3" d="M647.322,311.556l-0.483,0.974l3.621,0.564l2.819-1.621l-1.607-0.483l-2.572,0.731l-0.967-0.813L647.322,311.556z"
	/>
<path id="id2" d="M659.161,312.13l-4.185,3.489l0.399,0.894l1.77-0.327l2.09-1.951l4.104-0.566l-0.803-1.376L659.161,312.13z"/>
<path id="id1" d="M680.289,288.307l-3.417,0.383l-2.193,1.605l0.909,1.836l3.721,0.688v0.688l-2.352,1.911l1.139,3.972l1.139,0.074
	l0.982-3.9h1.818l0.764,3.817l8.872,7.341l0.228,5.734l3.032,3.286l1.366-0.072l0.302-20.252l-5.153-3.588l-4.857,3.285
	l-1.747,1.074l-2.884-1.836l-0.074-5.807L680.289,288.307z"/>
<path id="id_1_" d="M639.122,276.067l-1.892,7.11l-10.266,3.465l-3.071-3.605l-1.492,0.411l2.786,10.746l4.168,0.469l5.563,2.104
	v2.106l2.548-0.468l3.711-5.137v-4.202l2.088-4.203l2.317,0.464l-2.784-5.84l-0.425-3.761L639.122,276.067z"/>
<path id="ie" d="M358.808,146.752l-0.746,4.916l-6.61,2.426h-2.107l-1.5-1.057v-0.91l3.31-2.121l-0.902-1.819l0.148-2.572
	l2.861,0.147l1.311-3.08l-0.174,2.735l2.223,1.762L358.808,146.752z"/>
<path id="il" d="M445.49,205.334l-1.294,4.121l1.68,4.94l1.923-7.218v-1.547L445.49,205.334z"/>
<path id="in" d="M548.434,266.736l3.752-1.836l2.229-8.06l-0.099-9.896l12.764-13.78v-3.267l2.63-1.024l-0.1-3.776l-2.834-5.512
	l1.621-2.958l3.547,3.268l4.558,0.205v1.837l-1.416,1.531l0.299,0.818l2.435,0.098l0.507,2.752h0.713l1.827-3.269l0.909-8.569
	l3.039-2.146l0.098-2.957l-1.212-2.352l-1.925-0.098l-7.536,4.981l0.474,3.203l-5.292-0.018l-1.865-2.284l-1.017,0.13l0.345,3.178
	l-11.445-0.817l-7.093-3.162l-0.376-3.892l-4.728-2.932l-0.058-6.038l-3.243-3.711l-7.456,0.712l0.812,3.245l3.651,2.957
	l-6.317,12.928l-4.226,0.318l-0.696,1.559l4.163,3.851l-0.206,3.89l-4.251-0.065l-0.46,1.933l3.534-0.155l0.099,1.532l-2.533,1.327
	l1.622,3.062l3.14,1.024l1.925-1.426l0.909-2.547l1.115-0.507l1.318,1.325l-0.401,3.269l-0.909,1.532l0.205,2.654L548.434,266.736z"
	/>
<path id="iq" d="M461.046,194.661l-1.277,6.316l-5.292,4.407l0.335,2.081l5.17,0.351l8.233,6.701l4.604-0.131l0.122-1.549
	l1.688-1.81l2.359,1.335l0.312-0.296l-4.563-6.07l-2.164-0.131l-2.875-3.695l0.574-2.718l0.877-0.114l0.302-1.205l-3.915-4.12
	L461.046,194.661z"/>
<path id="ir" d="M465.422,188.86l-1.004,1.041l0.101,1.646l1.243,1.747l4.415,4.834l-0.672,1.933h-0.769l-0.385,1.934l2.499,3.195
	l2.303,0.196l4.611,6.38l2.589,0.196l2.015,1.449l0.098,2.902l7.973,4.644h2.975l1.827-1.548l2.303-0.098l1.344,3.097l8.608,1.196
	l0.258-3.163l2.849-1.032l0.132-1.131l-2.27-3.097l-5.056-4.063l2.655-2.417l-0.188-1.065l-3.328-0.516l-1.408-11.224l-0.163-2.582
	l-9.021-3.45l-3.998,0.901l-2.236,2.744l-1.982-0.131l-0.573,0.484l-4.417-0.287l-5.57-4.064l-2.072-2.27l-0.952,0.228l-1.714,1.958
	L465.422,188.86z"/>
<path id="is" d="M331.651,106.412l-1.604-0.909l-2.164,1.368l-1.859,1.72l0.049,0.96l2.408,0.302l-0.148,1.72l-0.851,0.861
	l0.206,0.557l2.408,0.156v2.784l3.465,0.608l2.057,1.166l2.309,0.098l3.968-1.975l3.062-4.047l0.051-2.737l-1.861-1.574
	l-1.556-1.318l-0.704,0.508l-1.057,1.367l-1.204-0.156l-1.205-1.32l-1.556,0.148l-2.261,1.875l-1.362,1.466l-0.753-0.653
	l-0.05-1.623l0.753-0.508L331.651,106.412z"/>
<path id="it2" d="M385.646,171.683l-0.507,1.285l0.137,1.4l1.958,2.286l3.081-0.107l6.798,7.898l4.245,1.23l2.508,2.368l0.598,5.396
	l1.344-0.785l1.165-2.941l-0.287-2.112l1.991-0.181l0.287-1.197l-5.612-2.686l-5.325-5.235l-2.121-3.13l-0.517-2.974l2.712-0.648
	l-0.696-1.958l-1.662-1.4l-1.435-0.066l-1.998,0.55l-1.886,2.636l-1.138,0.753l-1.76-1.081L385.646,171.683z"/>
<path id="it1" d="M402.168,193.014l-1.187-0.639l-4.056,0.639l0.139,1.097l3.646,1.836l0.548,0.598l0.959,0.14L402.168,193.014z"/>
<path id="it_1_" d="M389.979,185.117l-2.169,1.097l0.287,4.236l1.738,0.294l1.301-1.243v-4.014L389.979,185.117z"/>
<path id="jm" d="M194.488,239.358l-2.851,0.72v0.796l1.664,0.959h1.745l1.106-1.279L194.488,239.358z"/>
<path id="jo" d="M448.422,207.564l-2.015,7.028l-0.09,1.074h3.17l3.547-3.13l0.089-1.188l-1.447-1.483l2.595-2.153l-0.375-1.999
	l-0.713,0.164l-2.162,1.55L448.422,207.564z"/>
<path id="jp5" d="M656.777,187.607l-1.337,1.344l0.548,1.892l1.172,0.081l0.787,4.106l0.94,1.023l1.647-1.5l0.143-4.523
	l-1.896-2.014L656.777,187.607z"/>
<path id="jp4" d="M663.761,183.811l-2.52,2.043l-0.561,2.577l1.717,1.185l2.488-2.606l0.352-2.902L663.761,183.811z"/>
<path id="jp3" d="M660.847,179.874l-3.998,4.58v2.201l2.467-0.296l3.873-3.404l2.588-0.476l0.627,0.738l0.015,2.253l0.652,1.185
	h1.189l1.672-2.045l0.703-2.688l3.367-0.082l3.293-3.948l-1.718-6.554l-0.786-3.473l1.72-1.418l-3.917-5.915l-0.896-0.705
	l-1.776,0.705l-0.456,2.449v1.974l0.942,1.106l0.312,5.21l-2.427,2.999l-1.407-0.869l-1.098,2.449l-0.239,2.286l0.863,1.344
	l-0.55,1.024l-1.803-1.5h-1.253l-1.097,0.631L660.847,179.874z"/>
<path id="jp2" d="M667.59,144.203l-1.251,1.106l0.631,2.368l1.096,1.105l-0.081,3.63l-1.409,0.548l-1.098,2.449l3.212,4.416
	l2.114-0.712l0.393-1.106l-2.271-2.048l1.41-1.819l1.49,0.237l3.25,2.185l0.351-2.449l1.546-2.823l2.161-2.191l-2.341-1.066
	l-0.895-1.707l-1.172,0.787l-1.014,1.262l-2.195-0.475l-2.271-1.499L667.59,144.203z"/>
<path id="jp1" d="M679.412,141.754l-2.195,3.08l0.155,1.5l1.098-0.476l2.58-3.236L679.412,141.754z"/>
<path id="jp_1_" d="M682.312,137.256l-0.787,2.131l0.082,1.418l1.336-0.87l1.254-2.523v-0.941L682.312,137.256z"/>
<path id="ke" d="M450.004,277.804l2.181,4.25l-2.615,5.481l-0.343,1.662l13.05,8.07l4.049-6.356l-2.048-1.664l-0.04-8.372
	l2.563-2.803l-4.089,1.36l-3.088,0.043l-4.835-4.08l-1.523-0.657l-2.824,0.263l-0.498,0.837L450.004,277.804z"/>
<path id="kg" d="M520.441,173.508l-0.254,2.073l0.205,1.279l7.127,2.392l-6.259,2.523l-0.711-0.591l-1.353,0.869l0.064,0.475
	l0.72,0.328l4.395,0.115l2.228-0.672l2.861-3.604l3.578,0.622l4.318-5.982l-11.551-1.573l-1.598,3.875l-2.016-2.162L520.441,173.508
	z"/>
<path id="kh" d="M605.37,255.644l3.351,3.578l6.232-4.62l0.548-7.29l-3.217,2.222l-1.674-0.935l-2.27-0.304l-1.271-0.891
	l-0.614,0.033l-1.662,2.727l0.27,1.263l1.688,0.942l-0.205,2.563L605.37,255.644z"/>
<path id="km" d="M472.008,314.433l0.376,1.251l1.621,0.255l0.622-1.63L472.008,314.433z"/>
<path id="kp" d="M636.337,169.461l1.507,0.631l0.459,5.275l2.989,0.173l2.819-3.301l-0.976-0.868l0.115-3.539l2.588-3.13
	l-1.32-2.376l0.861-0.984l0.476-2.457l-1.5-0.681l-1.278,0.649l-1.581,4.799l-2.557-0.22l-2.958,3.49L636.337,169.461z"/>
<path id="kr" d="M644.579,172.68l5.063,4.128l0.86,4l-0.174,2.146l-2.473,2.785l-2.131,0.114l-2.417-5.218l-0.919-2.492l0.976-0.753
	l-0.229-1.042l-1.205-0.539L644.579,172.68z"/>
<path id="kw" d="M476.597,212.798l-1.844-1l-1.279,1.286l0.139,2.573l2.975,1.138L476.597,212.798z"/>
<path id="kz" d="M471.19,164.833l3.357-1.434l3.752-0.133l0.262,5.735h-2.195l-1.679,2.737l2.195,3.646l3.235,1.827l0.294,2.09
	l1.19-0.394l1.096-1.303l1.811,0.394l0.91,1.827h2.327v-2.343l-1.426-4.169l-0.649-3.383l4.138-1.828l5.562,0.909l3.491,3.515
	l7.888-0.778l4.401,6.252l5.17,0.26l1.426-2.342l1.811-0.395l0.259-2.604l2.714-0.132l1.423,1.696l1.428-3.383l12.279,1.694
	l2.063-2.736l-3.488-4.3l4.653-10.159l3.75,0.261l2.588-6.25l-5.17-0.525l-2.973-2.866l-8.193,0.95l-10.553-10.2l-3.72,3.3
	l-11.279-5.12l-13.838,6.775l-0.385,4.817l3.235,3.777l-6.307,3.563l-8.186-0.181l-1.712-2.515l-6.416-0.354l-6.078,3.908
	l-0.134,5.344L471.19,164.833z"/>
<path id="la" d="M601.266,225.709l-1.982,1.007l-1.647,4.8l2.752,3.506l-0.459,3.876l0.459,0.187l4.58-2.22l6.144,6.864l-0.15,4.323
	l1.337,0.725l3.301-2.681l-0.271-2.121l-9.527-9.053l0.091-1.385l1.188-0.827l-0.829-2.311l-3.94-0.648L601.266,225.709z"/>
<path id="lb" d="M446.21,200.731l0.052,1.597l-0.672,2.427l2.31,0.197l0.148-3.441L446.21,200.731z"/>
<path id="lc" d="M229.756,251.188l-0.583,1.237l0.942,1.016l1.229-0.655L229.756,251.188z"/>
<path id="lk" d="M556.265,262.672l0.206,2.229l0.205,1.623l-1.205,0.204l0.607,3.648l1.809,1.012l2.812-1.621l-0.804-3.841
	l0.206-1.418l-2.612-2.425L556.265,262.672z"/>
<path id="lr" d="M342.964,271.797l8.995,6.015l-0.216-4.556l-2.719-3.202l-2.654-2.351L342.964,271.797z"/>
<path id="ls" d="M430.817,358.802l2.499-1.927l1.181,0.05l1.424,1.777l-0.146,1.778l-2.4,0.887v0.688l-2.647-0.146l-0.639-1.925
	L430.817,358.802z"/>
<path id="lt" d="M413.042,139.313l-2.034,0.344l0.164,1.919l3.179,0.237l1.205,0.987l0.314,1.715l0.981,1.368l2.908-0.123
	l2.783-3.548l-0.162-2.105l-5.244-0.822L413.042,139.313z"/>
<path id="lu" d="M382.982,160.491l0.72,0.643l0.834,0.079l0.183-1.643l-0.238-0.924l-1.161,0.553L382.982,160.491z"/>
<path id="lv" d="M423.167,134.316l-6.03-0.983l-1.029,2.676l-1.736,0.519l-0.909-1.111l-0.912-1.717l-0.983,0.723l-0.559,2.968
	v1.619l2.125-0.355l4.422,0.079l5.322,0.989l2.132-0.623l-0.124-2.392L423.167,134.316z"/>
<path id="ly" d="M392.019,213.503l1.279-0.213l0.376-2.949h0.638l2.614-4.291l6.449,1.875l1.758,2.737l6.342,2.902l3.299-1.393
	l-0.32-1.395l-1.44-1.392l0.163-0.967l2.344-1.984h4.639l1.759,2.359l3.728,0.541l0.485,30.222l-2.77-0.107l-16.728-8.7
	l-1.811,1.025l-6.875-1.72l-1.867-2.467l-2.72-0.377l-1.382-2.466L392.019,213.503z"/>
<path id="ma" d="M366.001,200.601h-9.46l-1.852,4.112l-4.27,2.057l-3.524,9.536l-6.864,4.115l-9.643,15.884l9.462-0.188l0.368-4.67
	h2.408v-6.356h8.35l0.185-8.226l7.979-1.869l3.343-5.424l5.194-0.188L366.001,200.601z"/>
<path id="md" d="M425.362,164.087l2.542,3.907l-0.215,2.212l0.908,0.041l2.155-3.646l-2.59-3.213l-1.466-0.606L425.362,164.087z"/>
<path id="me" d="M410.709,178.588l-1.2,1.695l0.345,1.042l1.425,0.261l1.122-1.522L410.709,178.588z"/>
<path id="mg" d="M483.977,315.817l-1.746,4.144l-2.989,5.276l-5.234,0.375l-2.245,2.638l0.377,8.045l-3.245,3.769l0.376,6.408
	l2.745,3.138l3.245-0.376l3.243-2.392l-0.746-3.769l7.482-12.944l-1.5-1.629l1.5-3.14l1.621,0.498l0.498-1.253l-1.5-6.406
	l-0.875-2.638L483.977,315.817z"/>
<path id="mk" d="M417.308,180.717l-2.76,0.909l0.133,2.343l0.646,0.827l3.278-1.521L417.308,180.717z"/>
<path id="ml" d="M342.382,252.671l2.523-1.729l14.025-0.081l-3.244-22.562l3.703-0.106l17.914,13.674l2.408,0.342l-0.909,7.603
	l-11.264,1.023l-8.692,6.49l-1.581,4.44l-6.038,0.256l-1.54-4.434l-4.628,0.328l0.179-1.45L342.382,252.671z"/>
<path id="mm" d="M596.326,259.067l-2.271-3.637l1.647-2.311l-1.557-2.859l-1.468-0.279l-0.277-4.799l-2.195-4.251l-0.639,1.014
	l-1.468,2.492l-1.835,0.277l-0.918-1.205l-0.459-3.235l-1.377-2.586l-5.604-5.286l1.377-0.908l0.256-3.826l2.047-3.441l0.887-8.56
	l2.966-2.024l0.096-3.121l1.781,0.589l2.801,4.056l-2.079,4.455l1.401,3.499l3.463,1.359l0.632,3.812l4.653,0.721l-1.286,2.221
	l-5.864,2.311l-0.639,3.784l4.309,5.538l0.18,2.958l-1.007,1.015l0.089,0.928l3.212,4.711l0.092,4.89L596.326,259.067z"/>
<path id="mn" d="M550.744,149.718l4.769-6.324l5.727,2.646l3.892,1.041l4.766-4.374l-3.235-2.386l2.131-3.006l6.356,2.245
	l2.203,3.613l3.979,0.105l2.082-1.548l4.283-0.173l0.935,1.591l7.119,0.36l4.506-4.596l6.234,0.654l-0.361,6.259l2.729,0.622
	l3.351-1.522l3.549,1.753l-0.084,0.886l-2.572,0.074l-2.679,5.621l-2.081,0.205l-8.095,10.577l-8.267,3.646l-5.17,0.402l-4.292-2.77
	l-5.488,2.933l-5.407-1.678l-1.532-3.924l-10.24-0.723l-5.242-8.887l-2.547-0.165L550.744,149.718z"/>
<path id="mr" d="M330.454,236.957l1.786,2.334l-0.368,10.094l2.597-1.867l1.849-0.378l2.598,0.935l2.964,4.113l2.786-1.868
	l13.542-0.188l-3.342-22.619l3.588-0.017l-6.685-5.12l0.008,3.326l-8.463,0.009l-0.042,6.348l-2.432-0.008l-0.311,4.687
	L330.454,236.957z"/>
<path id="mt" d="M402.307,199.118l-1.366,0.279l0.049,1.517l1.229,0.41l0.55-0.459L402.307,199.118z"/>
<path id="mu" d="M500.944,337.172l-1.244,1.631l0.246,1.761l2.623-2.138L500.944,337.172z"/>
<path id="mv2" d="M536.489,273.086l0.246,2.138l1.366,0.5l0.248-1.887L536.489,273.086z"/>
<path id="mv1" d="M538.235,277.605l-0.124,2.638l1.001,0.498l0.876-1.758L538.235,277.605z"/>
<path id="mv_1_" d="M538.488,282.761l-0.875,0.876l0.999,0.877l1.246-0.877L538.488,282.761z"/>
<path id="mw" d="M446.997,321.124l2.549,2.663l-0.052,3.408l0.494,1.437l3.384-3.654l-0.393-4.643l-1.812-1.385l-1.612-8.153
	l-2.795-0.099l1.27,5.872L446.997,321.124z"/>
<path id="mx" d="M111.385,194.989l3.957,12.458l-1.843,1.032l0.205,2.474l3.482,2.68v4.955l4.301,4.129l-1.843-12.176l-2.458-8.053
	l0.614-5.569l2.048,0.206l0.82,1.859l-0.82,4.743l10.649,20.84v7.433l8.603,10.107l9.421,4.334l3.891-2.27l5.53,4.538l3.277-3.302
	l-1.434-3.719l4.71-1.442l1.434,0.827l1.434-1.441h2.253l4.096-7.226l-2.048-1.858l-7.988,1.858l-1.843,5.367l-4.711,0.827
	l-5.529-2.271l-2.458-7.837l1.86-9.888l-3.802-2.367l-1.81-9.497l-1.515-0.647l-2.77,2.81l-3.179-1.696l-1.244-6.333l-12.592-1.32
	l-6.504-4.891L111.385,194.989z"/>
<path id="my1" d="M599.004,268.735l1.646,3.695l0.37,4.798l2.202,3.417l4.83,2.921l0.947-0.75l1.389-0.272l-0.202-1.81l-1.743-4.245
	l-2.557-5.431l-0.217,0.95l-3.08-0.14l-2.212-3.178L599.004,268.735z"/>
<path id="my_1_" d="M624.751,283.046l2.474,2.86l9.488-3.286l1.877-7.243l4.226-0.302l3.867-2.802l-5.013-3.652l-1.147-2.009
	l-2.475,4.563l0.908,2.621l-1.507,2.19l-2.843-0.731l-6.89,5.056l0.178,2.925L624.751,283.046z"/>
<path id="mz" d="M442.089,348.878l2.205,1.827l5.192-3.159l0.835-4.694v-7.751l8.331-6.815l1.429,0.05l5.043-4.84l-0.785-9.979
	l-13.087,1.653l0.49,3.163l1.916,1.664l0.54,5.434l-4.509,4.397l-1.081-2.465l0.196-3.262l-2.597-2.817l-6.373,2.967l5.931,3.016
	l0.198,8.788l-3.925,5.826L442.089,348.878z"/>
<path id="na" d="M405.536,355.99l2.747,0.198l1.611,1.629l3.826,0.05l0.934-10.864v-7.109l2.449-0.492l0.935-7.456l6.225-0.196
	l2.203-1.825l-3.729-0.148l-5.046,0.687l-5.439-1.973h-15.286l0.393,4.341l5.096,7.504l-0.885,3.851l0.05,2.024L405.536,355.99z"/>
<path id="nc" d="M741.494,354.771l-0.287,1.466l3.774,5.268l2.032,0.88l0.287-2.05L741.494,354.771z"/>
<path id="ne" d="M376.322,257.717l2.088-0.05l1.884-2.825l3.162-0.566l3.367,2.057l7.184,0.205l5.555-2.262l2.09-1.796l0.155-2.357
	l3.874-3.908l1.024-8.627l-2.549-5.342l-6.52-1.59l-15.092,11.764l-2.138-0.205l-0.918,8.167l-7.698,0.771L376.322,257.717z"/>
<path id="ng" d="M376.879,271.947l3.212,0.155l3.874,4.318l1.884,0.517l1.475-0.722l2.244-0.311l0.763-3.131l3.058-2.006
	l3.308-0.154l6.063-11.152l-0.099-2.514l-2.801-2.154l-5.603,2.467l-7.497-0.105l-3.572-2.26l-2.547,0.564l-1.327,2.311
	l-0.098,6.519l-2.138,3.032L376.879,271.947z"/>
<path id="ni" d="M177.128,249.614l1.794,0.361l0.058,3.678l-2.089,5.964l-5.627-0.557l-1.254-2.877l1.671-3.489l3.17-2.948
	L177.128,249.614z"/>
<path id="nl" d="M383.86,148.161l-3.711,1.827l0.787,0.713l0.083,1.828l-0.787-0.155l-0.868-1.352l-2.073,3.286l3.188,0.662
	l1.187,1.254l0.631,0.017l0.417-2.834l2.007-0.845L383.86,148.161z"/>
<path id="no3" d="M421.029,93.986l1.654-1.213l-0.147-1.359l-1.05-0.608l0.15-1.663h0.899v-0.91l-3.908-1.056l-5.858,0.607
	l-0.598,2.572l-1.354-0.453l-0.901-1.515l-2.857,0.147l-0.304,2.875l-1.352,0.607l-0.753-1.516l-6.015,4.841l1.205,1.361
	l-2.254,1.057l-5.111,10.141l-1.801,1.212l0.146,0.909l1.801,0.909l-0.45,1.966l-3.008-0.155l-0.901-1.057l-1.951,2.271
	l-1.204,0.909l-0.303,2.124l-1.048,0.606l-2.704,0.606l-1.352,4.245l0.902,6.964l1.047,3.179l1.205,1.211l2.703-0.147l3.909-3.785
	l1.498-2.571l0.454,3.783l2.557-4.539l0.146-12.722l2.081-1.311l0.622-7.021l6.306-9.085l3.009-1.057l1.353-1.663l4.506,1.057
	l2.253,1.361l0.753-3.784l3.762-2.271L421.029,93.986z"/>
<path id="no2" d="M398.746,54.516l-1.352-1.36l-2.998,1.458h-5.505l-0.87,3.212l3.089,2.728l1.351-0.197l1.933-3.308l1.64,1.17
	l-1.166,2.335l-0.581,3.409l1.354,2.138l2.898-4.866l3.772-4.58l-1.451-1.261L398.746,54.516z"/>
<path id="no1" d="M400.384,48.676l-2.418,2.235l1.449,2.235h2.604l1.066,1.459l3.188,1.655l3.669-2.138l2.514-2.138l-0.866-1.753
	l-2.516-1.459l-1.838,1.655l-1.252-1.559l-0.968,0.099l-1.253,2.728l-1.835-1.852l-0.195-1.262L400.384,48.676z"/>
<path id="no_1_" d="M405.889,58.702l-1.935,1.755l-1.639,1.262l0.771,1.359l1.55,0.484l2.514-1.171l1.166-1.458l-1.066-1.754
	L405.889,58.702z"/>
<path id="np" d="M548.606,209.021l0.378,3.499l6.617,2.996l10.608,0.787l-0.402-2.563l-7.087-1.95l-6.015-3.58L548.606,209.021z"/>
<path id="nz1" d="M746.718,405.145l0.87,9.666l-1.164,4.393l-4.359,3.219l0.289,3.81v4.096l1.164,1.467l11.919-10.248v-2.343h-2.908
	l-4.072-13.763L746.718,405.145z"/>
<path id="nz_1_" d="M738.002,426.231l2.326,4.393l-6.398,6.15l-0.581,3.22l-4.359,0.581l-7.268,6.732l-6.684-3.218l-0.582-2.345
	l12.206-5.269L738.002,426.231z"/>
<path id="om" d="M488.958,240.382l6.055-3.489l1.073-5.121l-1.325-0.761l0.548-5.49l1.155-0.672l1.238,1.941l7.365,3.85v2.14
	l-8.922,13.13l-4.104,0.14L488.958,240.382z"/>
<path id="pa" d="M179.463,263.951l-1.196,3.735l3.949,1.021l2.449,0.486l0.418-2.893l2.629-1.327l2.335,1.205l0.917,1.466
	l1.114-0.132l0.876-2.661l-2.917-1.205l-2.212-1.205l-2.211,1.507l-2.63,1.327l-2.687-1.081L179.463,263.951z"/>
<path id="pe" d="M183.101,296.646l-1.589,1.606l0.107,2.563l13.877,25.298l14.41,9.29l2.229-3.735l0.532-8.215l-1.164-5.12
	l-3.925-6.619l-2.334,0.744l-1.056,1.172l-4.661-5.34l1.164-6.302l5.407-3.522l-0.426-3.31l-5.505-0.213l-2.859-4.8l-1.589-0.532
	l0.107,2.885l-7.095,8.43l-5.3-1.278L183.101,296.646z"/>
<path id="pg2" d="M697.353,295.639l-0.303,20.021l2.886-0.155l3.792-4.432l3.186,0.156l2.048,1.836l0.681,5.653l6.523,3.44
	l1.67-0.614v-2.065l-5.235-4.357l-2.58-5.966l2.049-0.992l-1.518-3.284l-3.03-0.074l-0.763-3.515l-8.035-5.424L697.353,295.639z"/>
<path id="pg1" d="M722.035,301.158l-0.775,0.182l-0.474,2.106l-1.492,0.967l-4.481,0.786l0.18,1.687l4.719-0.235l2.991-1.869
	l-0.178-3.253L722.035,301.158z"/>
<path id="pg_1_" d="M720.062,296.22l-0.722,1.023l3.94,3.491l0.539,2.048l1.073-0.123l0.124-2.104l-1.197-1.081L720.062,296.22z"/>
<path id="ph6" d="M645.422,254.055l-0.705,1.345l-0.393,1.654l-3.915,4.972l0.237,1.024l1.646-0.237l5.089-5.687L645.422,254.055z"
	/>
<path id="ph5" d="M651.762,252.161l-0.083,4.105l1.49,1.5l0.548,2.915l1.491,0.32l0.704-1.819l-1.172-0.868l-0.312-5.128
	L651.762,252.161z"/>
<path id="ph4" d="M655.998,253.744l-0.082,3.628l0.861,1.418l1.488-1.736l-0.393-3.154L655.998,253.744z"/>
<path id="ph3" d="M656.93,250.581l1.49,1.975l0.705,1.892h1.335l-0.237-3.235l-1.489-1.023L656.93,250.581z"/>
<path id="ph2" d="M659.833,258.003l0.312,2.368l-2.745,2.212l-2.271,0.236l-2.427,2.606l0.084,1.187l2.271-0.713l1.564-1.023
	l1.335,3.392l2.351,1.656l0.942-0.32l0.858-1.023l-1.875-1.894l1.098-0.868l1.253,1.023l0.859-1.416l-0.859-1.738l-0.155-3.866
	L659.833,258.003z"/>
<path id="ph1" d="M647.068,233.936l-2.113,1.498l-0.237,4.735l3.297,6.39l1.096,0.866l1.408-0.949l2.425,0.392l0.467,2.131
	l1.803,0.155l0.861-1.179l-1.098-1.499l-1.337-1.263l-2.817-0.31l-1.492-2.449l1.722-2.605l0.154-2.284l-1.17-2.917L647.068,233.936
	z"/>
<path id="ph_1_" d="M648.166,248.058l0.622,2.214l1.098,0.713l0.787-1.023l-1.253-1.736L648.166,248.058z"/>
<path id="pk" d="M509.234,214.986l2.131,3.163l-0.205,1.63l-2.834,1.124l-0.206,2.654h3.245l1.112-0.918h6.179l5.572,4.9
	l0.712-2.352h4.154l0.098-2.956l-4.252-4.081l0.911-2.245l4.357-0.301l5.875-12.249l-3.247-2.548l-1.21-4.284l7.896-0.713
	l-4.659-6.634l-2.484-0.673l-1.013,1.23l-0.764,0.057l-4.661,2.957l1.523,2.556l-1.72,1.835l-2.133,7.857l-5.266,3.367l-0.713,3.68
	L509.234,214.986z"/>
<path id="pl" d="M417.75,153.48l0.694,1.277l0.164,1.359l-0.571,1.319l-1.311,2.526l-1.105,0.498l-1.437-0.623l-0.858,0.041
	l-2.09,0.787l-2.375-0.702l-3.851-2.729l-3.771-2.023l-1.516-2.31l-0.287-5.449l2.948-2.564l3.851-1.279l1.259-0.131l0.298,0.954
	l1.637,0.656l4.517,0.085l1.392-0.041l2.296,3.514l-0.572,1.441l0.244,1.696L417.75,153.48z"/>
<path id="pr" d="M220.8,240.562l-2.162-0.729l-1.737,1.088l0.869,1.015l2.957,0.435L220.8,240.562z"/>
<path id="pt5" d="M351.779,183.363l-0.508,7.088l-1.45,1.312l0.148,0.801l1.015,1.68l-0.655,2.046l1.089,0.37l2.54-0.296
	l-0.147-2.046l1.664-9.497l-0.362-1.311L351.779,183.363z"/>
<path id="pt4" d="M333.142,203.99l-0.885,1.124l0.885,1.123l1.334-0.672L333.142,203.99z"/>
<path id="pt3" d="M304.026,188.1l-1.113,1.122l1.996,1.124l0.222-1.563L304.026,188.1z"/>
<path id="pt2" d="M310.031,187.428l-1.335,0.892l1.114,0.891l1.778-0.451L310.031,187.428z"/>
<path id="pt1" d="M310.916,190.565l-0.664,1.792l0.886,1.123l1.114-0.892L310.916,190.565z"/>
<path id="pt_1_" d="M316.249,194.145l-0.442,1.123l0.665,0.672l1.777-1.123L316.249,194.145z"/>
<path id="py" d="M237.767,337.6l1.802,1.966l-0.213,4.161l5.194-0.32l3.924,5.022l-0.319,4.482l-2.541,3.842l-5.192,0.213
	l-0.213-2.139l1.482-3.522l-5.087-3.204h-4.235l-3.179-3.415l2.311-6.604L237.767,337.6z"/>
<path id="qa" d="M484.248,222.506l-0.426,3.287l1.262,0.959l1.146-0.106l0.426-4.137l-0.992-0.712L484.248,222.506z"/>
<path id="ro" d="M418.339,163.997l-0.213,1.212l-4.744,3.947l3.965,5.817l2.543,1.779h4.57l1.509-1.261l2.022-0.262l1.507,0.909
	l2.671-3.039l-0.516-1.522l-2.712-0.696l-1.852-0.09l0.089-2.605l-2.456-3.867L418.339,163.997z"/>
<path id="rs" d="M412.91,169.682l-1.681,1.262h-0.816l-0.557,1.736l1.982,2.303l0.131,1.827l-0.836,1.181l2.907,3.03l3.144-0.959
	l-0.259-4.475L412.91,169.682z"/>
<path id="ru22" d="M668.851,70.057l1.443,4.981l2.885,0.827l2.882-4.562l-1.646-3.114l0.614-2.697h4.324l-1.033,2.074l0.411,7.471
	l-6.179,15.353l0.614,3.318l-0.205,5.603l11.526,16.802l2.262,0.623l0.206-13.688l2.26-2.073l-2.473-5.391l2.058-2.286l-4.531-6.014
	l-2.475,0.206l-0.82-9.954l6.383-1.663l0.409-2.908l3.297-0.827l1.851,1.665l2.262-9.129l3.908-6.634l3.089-1.664l2.679,0.205
	v-3.112l-4.324-0.827l-5.974-4.981l2.887-3.317l-2.474-5.604l2.055-2.073l2.474,3.317l6.178,2.285l6.792,0.623l0.827-2.901
	l-3.496-3.523l3.907-5.39l-8.857-3.113l-2.26,4.562l-2.884-3.734l-16.262-5.604l-15.443,2.695l-2.264,1.246v1.244l3.295,1.664
	l-0.411,3.94l-5.972-2.491l-13.172,5.187l-2.264-4.767h-9.061l-4.12,4.358l-14.616-3.318l-13.377,2.695l-1.646,4.146l2.057,0.622
	l-0.205,3.114l-12.971,1.448l0.828,4.146l-11.945-2.073l2.886-5.39l-12.149-0.623l1.032,5.604l-3.907,1.868l-3.295-3.113
	l-13.378,2.286l-5.144,4.769l-0.205,2.899l-3.295,0.205l-0.411-3.317l10.503-9.125v-6.227l-6.792-1.868l-8.855,2.901l-3.704-3.736
	h-1.646l-2.058,4.146l1.647,1.869l-11.741,6.433l-10.085,7.676l-6.179,8.503v3.523l6.586,2.695l-3.293,2.49l-6.997-2.49l-2.884,2.49
	l-4.326-4.982l-0.827,1.87l4.735,14.934l1.236,0.417l3.297-1.662l1.646,1.245v2.695l-3.09-1.244l-1.851,1.448l1.238,2.696
	l-1.033,7.053l-6.382,0.623l-0.409-2.286l3.702-2.285l0.827-6.227l-4.12-5.39l-1.442-9.331l-6.584-1.041l-0.614,3.317l1.236,1.662
	l-2.677,2.286l1.031,6.226l3.909,1.663l0.827,4.563l-3.916-2.49l-10.087-1.869l-1.236,3.318l-8.03,2.901l-1.238-2.073l-10.502,5.807
	l-0.204,3.941l-4.12,0.623l1.236-2.9v-2.901l-4.121-1.449l-2.678,1.041l2.26,4.358l1.647,2.899v2.286l-3.089-0.621l-0.615-0.623
	l-3.089,3.318l1.646,2.901l-6.997-0.207l2.264,2.909l-0.614,1.244h-3.702l-2.681-1.868l-0.612-5.186l-4.324-1.663v-2.073l9.061,1.87
	l4.94,0.417l2.057-3.113l-1.851-3.318l-13.172-5.186l-4.548,1.129l-1.558,1.337l0.485,3.071l1.933,0.335l-0.452,4.835l5.965,14.008
	l-4.31,6.833l-0.296,1.54l2.188,1.54l-1.975,1.303l-1.311,0.024l0.246,6.021l1.811,2.564l0.023,2.49l2.319,0.213l3.545,1.352
	l3.752,5.161l0.043,1.361l-1.22,2.089l2.8-0.155l2.729,0.787l3.688,5.218l9.075,0.827l-0.392,6.209l-3.129,2.679l0.646,1.047
	l-3.09,3.319l-0.817,3.112l1.851,2.696l5.972,2.073l2.475-1.45l15.853,6.015l0.614-1.665l-3.293-3.111v-3.941l-2.059-0.623
	l0.411-3.317l3.295-3.941l-5.905-4.423l0.409-6.152l6.316-4.155l7.413,0.418l1.238,2.285l7.619,0.418l5.563-3.113l-2.884-3.113
	l0.612-5.809l14.41-7.053l11.084,4.996l3.702-3.317l10.912,10.37l8.235-0.827l2.884,2.899l7.824,0.828l5.144-7.052l6.587,2.907
	l3.496,0.624l3.5-3.113l-3.089-2.073l2.679-4.146l7.618,2.491l1.646,3.318l3.295,0.205l2.057-1.449l5.563-0.206l0.612,1.45
	l6.383,0.417l4.322-4.563l8.857,1.04l2.678-1.04l0.82-4.981l-2.679-6.014l2.679-2.285h8.439l8.027,9.543l10.29,5.809h3.09
	l0.409-2.49l3.701-2.286l0.411,13.484l-3.293,0.205v3.317l1.852,2.286l-0.345,2.965l1.368,0.566l0.827-2.073l1.238,0.418
	l0.818,0.828l3.704-0.828l3.702-10.791l0.41-13.485l-4.734-10.791l-5.972-7.256l-2.886,0.416v2.286l-6.995-2.696l2.677-5.808
	l2.264-15.353l9.47-2.901l4.528-2.899h4.94l-1.242,1.662l1.236,2.074l4.326-4.563l2.471,0.204l-0.409-2.695l-3.915-0.828l2.679-9.75
	L668.851,70.057z"/>
<path id="ru21" d="M411.117,142.206l-1.229,2.271l4.42,0.041h0.901l-0.17-1.282l-0.69-0.81L411.117,142.206z"/>
<path id="ru20" d="M686.932,118.473l-1.015,1.262l0.084,1.974l0.938-0.081l1.566-2.761L686.932,118.473z"/>
<path id="ru19" d="M720.724,41.76l-1.932,1.262l-0.459,1.605l0.91,1.032l2.047-0.688l2.048,0.688l1.139,0.344l-0.115-3.785
	L720.724,41.76z"/>
<path id="ru18" d="M447.538,42.087l1.41,0.567l-0.992,1.704v2.417l-2.114,1.28h-2.252l-1.271-1.565l0.14-1.704l0.99-1.279h1.975
	L447.538,42.087z"/>
<path id="ru17" d="M452.896,40.523v1.704l1.407,1.139l1.975-0.138l1.693-1.565v-1.139h-1.547l-1.271,0.426l-0.992-1.139
	L452.896,40.523z"/>
<path id="ru16" d="M460.941,40.669l0.99,2.13l1.975,0.14l1.409-0.564l-0.704-1.991l-1.834-0.428L460.941,40.669z"/>
<path id="ru15" d="M468.978,37.828l-1.55-0.288l-1.41,1.425l0.705,1.279l0.426,1.991l1.836-1.417l0.426-1.564L468.978,37.828z"/>
<path id="ru14" d="M477.58,52.894l-0.428,1.991l-3.244,2.843l-6.912,1.564l-5.646,9.38l-0.992,2.704l5.646,1.427l0.842-3.41
	l1.697-5.259l4.374-2.278l3.669-2.843l2.679-1.138h1.408v-3.835L477.58,52.894z"/>
<path id="ru13" d="M459.384,73.645l3.809,0.426l1.272,4.406l3.245,3.409l-1.132,2.277h-1.975l-1.835-2.13l-4.089-0.139l-1.695-2.277
	v-1.565l2.544-0.712L459.384,73.645z"/>
<path id="ru12" d="M518.917,25.181l-1.837-1.14h-2.113l-0.424,1.279l-2.253,1.279l-1.697,0.564l-0.278,1.705l3.948,0.287
	L518.917,25.181z"/>
<path id="ru11" d="M523.284,25.605l-0.992,2.129l-1.974-0.138l-3.105,2.276l-0.843,2.843h1.974l1.131-1.85l2.679,1.991l2.541-1.139
	l1.835-1.564l-0.705-2.418l-0.99-1.704L523.284,25.605z"/>
<path id="ru10" d="M527.38,27.17l0.99,3.981l1.549,3.694l1.695-2.981l3.245-0.712v-2.13l-2.112-1.565L527.38,27.17z"/>
<path id="ru9" d="M604.779,20.798l2.205,1.85l1.563-0.647l0.459-2.597l-3.212-2.22l-2.113,1.392l-5.145,0.467v2.317l-5.425,0.091
	v3.793l6.341,4.719l1.655-1.205l-0.37-3.335l4.048-1.015l-0.827-1.573l-1.466-1.481L604.779,20.798z"/>
<path id="ru8" d="M610.662,18.576l1.467,2.779l5.702-0.649l1.564-2.039l-0.368-1.76l-1.564-0.648l-1.468,1.114l-4.226,0.926
	L610.662,18.576z"/>
<path id="ru7" d="M610.293,29.407l-2.853-0.737l-1.646,1.76l-0.736,2.407l3.857-0.368l2.941-1.482L610.293,29.407z"/>
<path id="ru6" d="M684.177,13.391l-2.389-0.738l-2.753,1.016l-1.377,2.038l1.745,2.318L684,15.987l0.919-1.016L684.177,13.391z"/>
<path id="ru5" d="M685.055,123.29v3.474l1.098,0.393l0.785-1.262v-2.68L685.055,123.29z"/>
<path id="ru4" d="M653.015,110.739l-0.072,5.054l6.34,9.791l2.271,8.519l3.998,7.577l1.563,0.55l1.337-1.106l0.622-1.818
	l-5.719-6.234l0.156-3.237l1.253-0.547l0.313-1.893l-11.198-15.86L653.015,110.739z"/>
<path id="ru3" d="M697.196,95.036l-1.562,0.155l0.939,1.345l1.959,1.344l0.548-0.631L697.196,95.036z"/>
<path id="ru2" d="M700.245,95.987l0.237,1.342l2.427,0.713l0.238-0.95L700.245,95.987z"/>
<path id="ru1" d="M713.555,101.139l1.024,1.836l1.706-0.115l0.343-1.262L713.555,101.139z"/>
<path id="ru_1_" d="M730.735,104.004l1.368,2.523l1.023-1.146v-1.719L730.735,104.004z"/>
<path id="rw" d="M439.346,288.766l2.303,2.121l-0.1,2.27l-3.571,0.074v-2.508L439.346,288.766z"/>
<path id="sa" d="M477.176,217.771l5.743,8.001l1.852,1.477l0.829,3.588l8.839,0.695l1,0.524l-0.991,4.423l-5.808,3.425l-8.497,2.572
	l-4.529,4.425l-5.383-3.138l-3.26,2.851l-4.54-7.414l-3.112-1.425l-1.129-1.712v-3.713l-11.33-13.696l-0.428-2.428h3.26l3.967-3.421
	l0.137-1.714l-1.129-1.138l2.27-1.85l4.818,0.287l8.217,6.848l4.85-0.219l0.311,1.197L477.176,217.771z"/>
<path id="sb6" d="M727.353,304.831l1.017,2.824l1.792,1.746l0.54-0.483l-0.18-1.869l-2.032-2.466L727.353,304.831z"/>
<path id="sb5" d="M732.308,309.04l0.124,1.868l1.139,1.081l1.073-0.663l-0.959-1.991L732.308,309.04z"/>
<path id="sb4" d="M733.743,313.679l-0.96,1.023l1.016,1.868l1.196,0.36l-0.058-1.26L733.743,313.679z"/>
<path id="sb3" d="M736.078,312.596l0.836,2.05l1.612,1.923l0.895-1.442l-1.198-2.047L736.078,312.596z"/>
<path id="sb2" d="M740.264,315.669l0.474,2.53l1.141,1.564l0.959-1.983L740.264,315.669z"/>
<path id="sb1" d="M741.575,321.329l-0.418,0.721l1.377,1.812l0.959,0.06l-0.6-2.353L741.575,321.329z"/>
<path id="sb_1_" d="M738.526,324.934l-1.435,0.664l1.253,1.745l1.074-0.604L738.526,324.934z"/>
<path id="sc2" d="M492.21,303.872l-0.496,1.005l1.366,1.131l1.001-1.131L492.21,303.872z"/>
<path id="sc1" d="M499.198,296.337l-1.499,1.005l1.125,1.76h1.5L499.198,296.337z"/>
<path id="sc_1_" d="M499.822,300.734l-1,1.131l0.744,1.13l1.366,0.255l0.124-2.39L499.822,300.734z"/>
<path id="sd" d="M426.313,262.327l-2.417-1.425l-2.203-4.351l0.124-4.048l3.055-2.627l0.147-9.693l2.016,0.06l-0.229-5.385
	l21.135,0.189l3.022-3.047l6.521,10.428l-3.572,4.209v6.431l-4.359,9.376l-0.985,2.179l-3.515-5.039l-2.567,3.262l-2.898,0.79
	l-9.422-0.947l-4.105,1.46L426.313,262.327z"/>
<path id="se1" d="M406.495,95.987l1.604,1.48h3.006l1.655,3.178l0.453,5.448l-4.056,2.876v2.875l-2.857,3.941l-1.655,0.146
	l-2.255,3.785l0.146,3.637l3.909,2.876l-0.302,1.663l-1.499,2.27l-2.253,1.966l0.146,6.513l-3.456,1.211l-1.205,2.572h-1.656
	l-0.897-4.539l-3.764-5.766l3.091-5.17l0.213-12.773l2.131-1.171l0.517-7.306l6.069-8.693L406.495,95.987z"/>
<path id="se_1_" d="M407.125,133.333l-1.729,1.368l0.87,2.007l1.53-1.491L407.125,133.333z"/>
<path id="sg" d="M608.439,283.813l0.649,0.368l1.468-0.118l-0.124-1.107l-1.195,0.189L608.439,283.813z"/>
<path id="si" d="M404.103,167.594l-2.081,1.245l-3.884,0.852l0.778,2.244l2.719,0.032l2.508-2.097L404.103,167.594z"/>
<path id="sk" d="M404.955,163.612l0.566,0.5l0.072,0.851l6.25-0.138l4.621-1.992l-0.072-2.023l-0.885,0.394l-1.271-0.681
	l-0.779-0.033l-2.047,0.82l-2.786-0.672L404.955,163.612z"/>
<path id="sl" d="M337.852,266.835l4.628,4.472l3.302-4.006l-2.065-3.235l-2.843,0.287L337.852,266.835z"/>
<path id="sn" d="M337.492,256.392l-5.489-0.134l1.016,2.468l0.565-1.523l6.891,0.72l0.764-0.026l3.227,0.113l0.115-1.425
	l-2.949-3.538l-3.285-4.447l-2.04-0.85l-1.574,0.401l-3.227,2.342l-0.736,1.312l-0.229,1.311l1.188,0.852l3.967-0.057l2.547-0.69
	l0.287,1.253l-0.228,1.654L337.492,256.392z"/>
<path id="so" d="M483.707,259.396l3.58-1.375l1.27,0.76l-0.139,3.179l-3.301,9.405l-17.867,19.134l-2.073-1.423l-0.14-8.076
	l2.687-3.09l5.703-1.76l8.362-8.832l2.19-1.949l0.612-2.85L483.707,259.396z"/>
<path id="sr" d="M238.89,273.396l1.671,1.532l2.588-1.606l2.36,0.074l-0.304,0.918l-0.991,2.066l-0.156,5.136l-4.71,1.916
	l0.229-3.293l-3.039-2.836l0.155-1.456L238.89,273.396z"/>
<path id="ss" d="M448.292,265.155l-1.933,0.852l0.613,3.367h2.409l3.268,4.742l-2.623,0.336l-0.672,1.221l-0.064,1.759l-7.865-0.137
	l-0.804-1.222l-5.495-0.311l-10.094-10.389l1.007-0.607l4.281-1.292l9.379,0.715l3.191-0.715l2.118-2.839L448.292,265.155z"/>
<path id="st1" d="M384.393,286.513l0.94-0.476l0.704,0.572l-0.704,1.089l-0.851-0.336L384.393,286.513z"/>
<path id="st_1_" d="M386.285,283.521l1.418-0.238l0.474,0.901l-0.703,0.765l-0.706-0.101L386.285,283.521z"/>
<path id="sv" d="M163.947,253.022l3.85,1.918l-0.058-3.04l-1.974-1.205L163.947,253.022z"/>
<path id="sy" d="M446.595,198.019l-0.285,2.082l2.309,0.967l-0.099,5.769l2.311-0.051l2.312-1.746l0.868-0.147l5.242-4.167
	l1.056-6.057l-10.478,1.066l-1.106,2.426L446.595,198.019z"/>
<path id="sz" d="M441.843,349.471l-2.055,0.341l-0.887,2.419l1.572,1.435h1.91l1.612-2.319L441.843,349.471z"/>
<path id="td" d="M402.456,252.802l0.107-2.419l3.883-3.774l1.042-9.273l-2.589-4.949l1.812-0.928l17.531,9.135l-0.107,8.963
	l-3.089,2.63v4.62l2.024,3.915h-3.572l-5.914,5.851l-0.157,1.771l-4.362-0.058l-0.06,0.802l-2.489-0.328l-1.705-3.219l-1.281-0.632
	l0.167-0.982l1.603-1.229v-5.75l-2.219-0.344l-2.679-1.992L402.456,252.802z"/>
<path id="tg" d="M371.678,273.487l2.193-1.285l-0.05-8.479l-1.426-2.31l-0.916,0.77L371.678,273.487z"/>
<path id="th" d="M596.809,231.886l2.654,3.416v4.156l0.916,0.455l4.221-2.03l0.827,0.277l5.038,5.817l-0.181,3.973l-1.646-0.277
	l-1.468-0.93l-1.096,0.093l-1.925,3.227l0.368,1.755l1.557,0.825l-0.091,1.943l-1.096,0.558l-3.763-2.59v-2.31l-1.555-0.091
	l-0.639,1.014l-0.33,10.34l2.433,4.441l4.31,4.153l-0.178,1.205l-2.296-0.089l-2.106-3.139h-2.202l-2.751-2.222l-0.827-2.311
	l1.188-1.941l0.409-1.755l1.293-2.293l-0.057-5.275l-3.162-4.57l-0.133-0.558l1.025-1.032l-0.239-3.631l-4.207-5.332l0.49-3.07
	L596.809,231.886z"/>
<path id="tj" d="M515.017,183.855l3.367-4.178h1.27l0.442,0.933l-1.557,1.129v0.934l1.025,0.736l4.922,0.296l1.604-0.689
	l0.731,0.146l0.492,1.574l2.923,0.295l1.468,3.097l-0.442,0.933l-0.583,0.051l-0.579-1.18l-1.271-0.099l-2.193,0.296l-0.148,2.066
	l-2.193-0.147l0.098-2.606l-1.606-1.571l-2.439,2.014l0.05,1.326l-2.146,0.738h-1.271l0.099-4.572L515.017,183.855z"/>
<path id="tm" d="M485.247,180.373l-0.507,2.155h-3.4v2.917l3.652,2.408l-1.128,3.3v1.523l1.515,0.256l2.016-2.665l4.539-1.014
	l9.699,3.679l0.122,2.662l5.416,0.508l6.046-6.349l-0.754-2.032l-4.031-0.887l-11.338-7.364l-0.507-2.664h-4.285l-1.892,3.557
	h-1.895L485.247,180.373z"/>
<path id="tn" d="M387.808,196.545l4.531-1.826l1.49,0.966l0.058,1.179l-0.696,0.909l0.105,1.614l0.696,0.376v2.9l-0.802,1.344
	l0.104,0.861l3.039,1.072l-2.448,3.81l-0.959-0.058l-0.163,3.063l-1.066,0.166l-0.909-0.805l0.213-3.113l-2.98-2.9l-0.378-2.523
	l1.442-1.129L387.808,196.545z"/>
<path id="tr" d="M432.632,183.544l-2.184-1.351l-1.205-0.961l-2.027,0.868l-1.399,3.545l2.104-0.474l1.48-1.125l3.258,0.888
	l-1.844,1.779l-4.905-0.237l-1.811,1.983v0.968l1.157,0.967v1.064l-0.485,1.263l0.485,1.064l1.54-0.77l1.54,1.646l-0.385,1.165
	l-0.572,0.776l0.859,0.968l4.228,0.868l2.977-1.262v-1.835l1.439,0.287l3.458,2.032l3.741-0.583l1.633-1.547l1.055,0.385v1.745
	h1.442l1.243-2.417l10.945-1.164l4.777-0.581l-1.262-1.655l-0.024-2.236l0.959-1.146l-3.489-2.802l0.188-2.417h-1.918l-3.179-1.557
	l-1.829,1.935l-6.717-0.198l-4.029-2.417l-3.869,0.347l-4.308,2.587L432.632,183.544z"/>
<path id="tt" d="M229.968,259.993l-0.869,0.804l-0.942,0.146v1.165l1.737,1.599l0.721-1.166l0.434-1.311l-0.147-1.088
	L229.968,259.993z"/>
<path id="tw" d="M643.857,213.732l-2.899,2.212l-0.155,4.259l2.508,2.917l0.622-0.55L643.857,213.732z"/>
<path id="tz" d="M451.027,314.436l13.075-1.601l-3.217-6.227l-0.174-5.963l1.042-2.853l-13.616-8.552l-4.267,0.705l-1.482,1.098
	l-0.132,2.499l-0.959,3.466l-1.001,1.187l-1.435,0.135l2.663,8.926l4.563,2.689l3.977,0.095L451.027,314.436z"/>
<path id="ua" d="M421.118,152.16l-2.375,1.335l0.589,2.524l-2.195,4.628l0.019,2.039l1.032,0.654l6.617,0.329l1.854-1.531
	l1.982,0.663l2.842,3.792l-2.079,3.735l2.473,0.721l3.235-3.727l1.854,0.335l1.72,1.197l-1.519,1.999l2.05,3.194h2.179l1.123-2.13
	l2.311-0.468l0.064-1.727l-4.293-0.664l0.134-1.86h4.161l4.49-3.596l1.982-1.729l0.326-5.456l-8.848-0.794l-3.628-5.12l-2.509-0.861
	l-3.039,0.131l-1.368,3.383l-6.227,0.083l-2.023-0.934L421.118,152.16z"/>
<path id="ug" d="M439.739,288.102l2.482,2.324l1.559-0.99l4.209-0.688l0.722,0.074l0.269-1.6l2.379-4.996l-1.999-4.162l-6.48,0.04
	l-0.041,1.714l0.87,0.837l-0.134,1.712L439.739,288.102z"/>
<path id="us6" d="M120.618,140.027l-0.82,3.293l-2.859-1.852h-1.425l-0.82,3.499l-10.002,22.415l2.654,19.528l3.269,1.646
	l0.614,5.35h6.734l6.528,4.932l12.854,1.236l1.426,6.579l2.039,1.442l2.859-2.875l2.246,1.023l2.039,9.454l3.465,2.261l2.859-5.35
	l8.774-6.375l5.709,2.67l4.899,0.41l0.204-3.08l10.2,0.206l2.039,2.262l0.41,5.137l-1.221,2.876l1.425,4.931h3.064l3.063-4.727
	l-1.221-2.261l-1.221-4.932l1.835-5.554l8.364-7.193l6.325-1.851l-0.819-5.964l8.774-9.462l8.774-1.441l-1.425-4.922l8.569-4.932
	v-6.578l-0.82-0.41l-3.063,1.025l-0.41,4.03l-10.183,0.122l-7.979,5.302l-12.526,4.096l-1.999-2.451l5.685-8.602l-2.81-2.678
	l-1.909-3.638l-3.957-3.179l-4.301-0.36l-8.126-5.545L120.618,140.027z"/>
<path id="us5" d="M55.416,54.015l2.835,5.303l1.819-0.41v-1.836L55.416,54.015z"/>
<path id="us4" d="M39.432,100.638l-0.14,2.467l1.77-0.409v-1.098L39.432,100.638z"/>
<path id="us3" d="M36.713,101.735l-3.539,1.786l0.549,1.917l1.36-1.098l2.72-1.237L36.713,101.735z"/>
<path id="us2" d="M22.008,104.063l-2.449-0.549l-0.409,1.098l0.27,2.056L22.008,104.063z"/>
<path id="us1" d="M16.831,103.93l-2.318-0.957l-0.819,1.507l1.499,1.509L16.831,103.93z"/>
<path id="us_1_" d="M75.028,47.085l-6.873,1.632l1.418,7.741l7.479,2.038l0.401,1.631l-11.117,3.465l-6.267,10.387l2.22,11.002
	l3.637,2.441l2.835-2.647l0.811,1.632l-3.44,4.071l-13.346,6.112l-8.496,2.038l-0.205,3.057l19.613-5.702l8.085-2.245l7.48-9.168
	l8.291-5.497l-4.244,7.128l4.653,0.613l7.889-3.464l1.418,5.702l5.456,1.221l5.661,5.497l0.401,4.071l-0.811,1.017l1.008,3.867
	h1.417l0.205-6.521h1.614l0.401,16.089l4.047-3.466l-2.834-16.704h-4.244l-4.653-5.905l22.848-38.709L105.144,31.79l-25.273,4.89
	l-1.007,7.741l5.456,3.26l-2.024,5.301L75.028,47.085z"/>
<path id="uy" d="M244.812,364.158l-1.68,1.794l0.696,9.651l5.276,1.53l6.71-6.727L244.812,364.158z"/>
<path id="uz" d="M513.976,189.771l2.523,0.131v-4.318l-2.39-1.393l4.031-5.079h1.639l1.638,1.911l4.285-1.647l-5.923-2.032
	l-0.229-1.229l-1.407,0.343l-1.385,2.408l-5.973-0.196l-4.384-6.201l-7.7,0.761l-3.669-3.637l-5.079-0.858l-3.687,1.5l2.14,7.109
	l0.021,2.392l1.558,0.033l1.908-3.638l5.079,0.064l0.755,2.792l10.886,7.226l4.21,0.968L513.976,189.771z"/>
<path id="vc_2_" d="M229.829,254.316l-1.008,0.729l0.796,1.458l1.302-0.729L229.829,254.316z"/>
<path id="vc_1_" d="M228.599,257.151l-0.941,0.942l0.36,0.58h1.155l0.36-0.952L228.599,257.151z"/>
<path id="ve" d="M203.934,260.928l0.36,2.122l2.662,0.846l0.606-3.908l2.81-2.907l2.81,3.293l6.463,1.762l5.473-1.147l3.728,4.594
	l2.81,1.763l-3.08,4.694l1.032,3.556l-1.761,2.179l-1.828,1.531l-3.957-1.992l-0.909,0.918v2.834l2.893,1.375l-2.13,2.303
	l-2.13,2.305l-2.811-0.229l-2.826-3.104l-0.598-11.682l-9.651-3.295l-1.753-5.137L203.934,260.928z"/>
<path id="vn" d="M609.122,259.723l0.974,1.533l0.18,1.753l2.563,0.279l3.115-4.153l2.933-0.828l1.557-4.244l-0.729-6.832
	l-3.022-4.155l-3.186-2.548l-4.056-6.964l2.907-4.867l-4.162-4.775l-3.334-0.146l-2.999,1.613l0.893,3.858l4,0.704l1.073,2.975
	l-1.41,0.918l0.091,0.736l9.379,9.177l0.368,2.695l-0.564,8.521L609.122,259.723z"/>
<path id="vu2" d="M753.149,335.723l-1.014,1.36l0.426,1.533l0.507,0.342l0.928-1.195L753.149,335.723z"/>
<path id="vu1" d="M753.659,339.894L753.74,341l1.098,0.345l0.763-0.426l-0.763-1.197L753.659,339.894z"/>
<path id="vu_1_" d="M755.263,349.772l-0.507,0.77l0.761,0.85l1.27-0.424L755.263,349.772z"/>
<polygon id="ye1" points="491.329,248.623 471.348,256.754 468.519,254.184 468.519,250.764 467.338,247.254 470.308,244.573 
	475.659,247.733 480.269,243.203 488.308,240.634 491.508,246.384 "/>
<polygon id="ye" points="494.928,256.023 494.079,256.313 491.718,257.743 489.968,255.794 491.769,255.594 493.848,254.983 "/>
<path id="za" d="M436.346,340.975l-6.472,5.982l-1.54,3.692l-5.127-0.639l-4.269,3.793l-2.834-0.277l0.228-5.242l-1.007-0.352
	l-0.703,10.721l-5.031-0.048l-1.517-1.788l-2.221-0.022l2.024,5.809l3.613,3.415l-2.58,3.006l1.672,3.77l3.866,1.477l3.08-2.623
	l8.824,0.051l0.631-0.785l3.917-0.69l13.248-13.19l-0.05-4.152l-1.418,1.835h-2.121l-2.581-2.162l1.311-3.26l2.255-0.457
	l-0.205-6.701L436.346,340.975z M433.242,356.131l1.238-0.05l2.007,2.178l-0.058,2.523l-2.351,1.188l-0.148,0.837l-3.587,0.04
	l-1.124-2.704l1.025-1.982L433.242,356.131z"/>
<path id="zm" d="M420.283,325.466l2.595,3.604l4.022,0.246l1.426,0.787l4.211,0.05l3.628-5.087l10.144-4.539l0.885-3.998
	l-1.179-5.727l-5.292-3.016l-3.532,0.246l-1.761,3.9l0.051,1.776l4.161,2.025l0.246,4.4l-3.576,0.195l-0.887-1.482l-9.947-4.244
	l-0.295,3.26l-4.701,0.148L420.283,325.466z"/>
<path id="zw" d="M428.564,331.693l7.351,8.3l5.635,1.433l3.776-5.921l-0.297-7.849l-6.127-3.162l-2.303,1.041l-3.432,5.234
	l-4.751-0.05L428.564,331.693z"/>
</svg>
